<?xml version="1.0" encoding="utf-8"?>
<!-- Generator: Adobe Illustrator 26.5.0, SVG Export Plug-In . SVG Version: 6.00 Build 0)  -->
<svg version="1.1" id="Layer_1" xmlns="http://www.w3.org/2000/svg" xmlns:xlink="http://www.w3.org/1999/xlink" x="0px" y="0px"
	 viewBox="0 0 886.4 69.4" style="enable-background:new 0 0 886.4 69.4;" xml:space="preserve">
<g>
	<path d="M35.6,49h-9.4L12.4,24.7V49H3V9.9h9.4l13.8,24.3V9.9h9.4V49z"/>
	<path d="M69.1,32.4H54.3v9.3h17.5V49H44.9V9.9h27v7.3H54.3v8.2h14.8V32.4z"/>
	<path d="M109.2,34.4l4.5-24.5h9.3L114.8,49H105l-5.2-22.3L94.6,49h-9.7L76.6,9.9h9.4l4.5,24.5l5.4-24.5h8L109.2,34.4z"/>
	<path d="M155.3,38.3l7.8-28.5h10.5L160.5,49h-10.3L137.1,9.9h10.4L155.3,38.3z"/>
	<path d="M200,41.7h-12.9l-2.3,7.3h-10.1l14.3-39.1h8.9L212.4,49h-10.1L200,41.7z M189.3,34.4h8.4l-4.2-13.6L189.3,34.4z"/>
	<path d="M233.1,35.2H228V49h-9.4V9.9h15.4c4.6,0,8.3,1,10.9,3.1c2.6,2.1,3.9,5,3.9,8.7c0,2.7-0.6,5-1.7,6.8
		c-1.1,1.8-2.8,3.2-5.2,4.3l8.2,15.8V49H240L233.1,35.2z M228,27.9h6c1.8,0,3.1-0.5,4-1.4c0.9-0.9,1.4-2.3,1.4-3.9
		c0-1.7-0.5-3-1.4-4c-0.9-1-2.3-1.4-4-1.4h-6V27.9z"/>
	<path d="M267.8,49h-9.4V9.9h9.4V49z"/>
	<path d="M310.7,30.2c0,3.8-0.7,7.2-2.1,10.1c-1.4,2.9-3.4,5.2-6,6.8c-2.6,1.6-5.6,2.4-8.9,2.4s-6.3-0.8-8.9-2.3
		c-2.6-1.5-4.6-3.7-6-6.6s-2.2-6.1-2.3-9.8v-2.2c0-3.8,0.7-7.2,2.1-10.1c1.4-2.9,3.4-5.2,6-6.8c2.6-1.6,5.6-2.4,9-2.4
		c3.3,0,6.3,0.8,8.9,2.4c2.6,1.6,4.6,3.8,6.1,6.7c1.4,2.9,2.2,6.2,2.2,10V30.2z M301.2,28.6c0-3.9-0.6-6.8-1.9-8.8
		c-1.3-2-3.2-3-5.6-3c-4.7,0-7.2,3.5-7.5,10.6l0,2.9c0,3.8,0.6,6.8,1.9,8.8c1.3,2.1,3.2,3.1,5.7,3.1c2.4,0,4.2-1,5.5-3
		c1.3-2,1.9-4.9,2-8.7V28.6z"/>
	<path d="M333.4,35.2h-5.1V49h-9.4V9.9h15.4c4.6,0,8.3,1,10.9,3.1c2.6,2.1,3.9,5,3.9,8.7c0,2.7-0.6,5-1.7,6.8
		c-1.1,1.8-2.8,3.2-5.2,4.3l8.2,15.8V49h-10.1L333.4,35.2z M328.3,27.9h6c1.8,0,3.1-0.5,4-1.4c0.9-0.9,1.4-2.3,1.4-3.9
		c0-1.7-0.5-3-1.4-4c-0.9-1-2.3-1.4-4-1.4h-6V27.9z"/>
	<path d="M388.8,9.9v25.6c0,2.9-0.6,5.4-1.9,7.5c-1.2,2.1-3,3.7-5.3,4.8c-2.3,1.1-5,1.7-8.2,1.7c-4.8,0-8.5-1.2-11.3-3.7
		c-2.7-2.5-4.1-5.9-4.2-10.2V9.9h9.5v26c0.1,4.3,2.1,6.4,6,6.4c2,0,3.4-0.5,4.4-1.6c1-1.1,1.5-2.8,1.5-5.2V9.9H388.8z"/>
	<path d="M410.3,9.9l8.7,27.2l8.7-27.2h12.4V49h-9.5v-9.1l0.9-18.7L422.2,49h-6.2l-9.5-27.8l0.9,18.7V49h-9.4V9.9H410.3z"/>
</g>
<g>
	<path d="M482.6,37.4c0,1.2-0.3,2.4-0.8,3.8s-1.3,2.6-2.3,3.8s-2.3,2.2-3.9,3c-1.6,0.8-3.4,1.1-5.4,1.1c-2,0-4.1-0.4-6.1-1.3
		c-2-0.9-3.7-2.2-5.1-4c-0.6,1.4-1,2.7-1.2,3.9h-2.6V34.6h2.6c0.5,1.9,1.1,3.7,2,5.3c0.8,1.7,2,3.1,3.5,4.3c1.5,1.2,3.4,1.8,5.6,1.8
		c1.9,0,3.5-0.5,4.6-1.6s1.7-2.4,1.7-4c0-0.9-0.2-1.7-0.5-2.4c-0.4-0.7-0.9-1.3-1.6-1.8s-1.6-1.1-2.8-1.7c-1.2-0.6-2.5-1.3-4-1.9
		c-2.3-1.1-4.2-2.2-5.7-3.3c-1.5-1.1-2.6-2.2-3.4-3.2s-1.3-2-1.6-3c-0.3-0.9-0.4-1.9-0.4-2.9c0-1.7,0.5-3.4,1.4-5.1s2.3-3,4.1-4.1
		c1.8-1.1,3.8-1.6,6.2-1.6c1.8,0,3.5,0.4,5.1,1.2c1.6,0.8,3,1.9,4.2,3.3c0.3-0.8,0.7-1.9,0.9-3.3h2.7v10.7h-2.7
		c-1.9-5.8-5.2-8.8-9.9-8.8c-1.7,0-3.1,0.4-4.1,1.3c-1,0.9-1.5,2.1-1.5,3.5c0,1.1,0.3,2.1,1,2.9c0.6,0.8,1.5,1.5,2.5,2.1
		c1,0.6,2.7,1.4,5.1,2.5c2.8,1.3,5,2.5,6.6,3.5c1.6,1,2.9,2.2,4,3.7C482,33.5,482.6,35.3,482.6,37.4z"/>
	<path d="M531.4,48.5h-18.9v-2.6c1.5,0,2.7-0.2,3.5-0.5s1.3-0.8,1.5-1.5s0.3-1.5,0.3-2.5V29.8h-17.8v11.5c0,1.6,0.3,2.7,1,3.5
		c0.7,0.7,2.2,1.1,4.5,1.1v2.6h-19v-2.6c1.5,0,2.7-0.2,3.5-0.5s1.3-0.8,1.6-1.5c0.2-0.6,0.4-1.5,0.4-2.6V17.2c0-1.1-0.1-1.9-0.3-2.5
		c-0.2-0.6-0.7-1.1-1.5-1.5c-0.8-0.4-2-0.5-3.6-0.5v-2.6h19v2.6c-2.3,0-3.8,0.3-4.5,1c-0.7,0.7-1,1.9-1,3.5v9.5h17.8v-9.5
		c0-1.1-0.1-1.9-0.3-2.5c-0.2-0.6-0.7-1.1-1.5-1.5c-0.8-0.4-2-0.5-3.6-0.5v-2.6h18.9v2.6c-1.6,0-2.8,0.2-3.6,0.5
		c-0.8,0.4-1.3,0.8-1.5,1.5c-0.2,0.6-0.3,1.5-0.3,2.5v24.1c0,1,0.1,1.9,0.3,2.5c0.2,0.6,0.7,1.1,1.5,1.5s2,0.6,3.6,0.6V48.5z"/>
	<path d="M572.3,48.5h-18.1v-2.6c1.5,0,2.6-0.1,3.3-0.3c0.7-0.2,1-0.7,1-1.5c0-0.6-0.1-1.1-0.3-1.7l-1.8-4.5h-12.5l-0.9,2.5
		c-0.5,1.4-0.8,2.4-0.8,3c0,1.1,0.4,1.9,1.3,2.2s1.9,0.5,3.1,0.5v2.6h-13.2v-2.6c1.1,0,2-0.2,2.7-0.6s1.4-1.1,2.1-2.3
		s1.4-2.7,2.2-4.7l11.1-29h2.7l11.7,29.9c0.8,2.1,1.5,3.5,1.9,4.3c0.4,0.7,0.9,1.3,1.6,1.7c0.7,0.4,1.7,0.6,2.9,0.6V48.5z
		 M555.4,34.9l-5.3-13.4l-5,13.4H555.4z"/>
	<path d="M618.9,48.5h-21.3v-2.6h1.7c1.5,0,2.5-0.1,3-0.3c0.5-0.2,0.8-0.5,0.8-0.9c0-0.7-0.8-2.1-2.3-4.2l-8.2-11.6l-4.9,4.3v8.3
		c0,1.7,0.4,2.9,1.2,3.5c0.8,0.7,2.2,1,4.4,1v2.6h-19.2v-2.6c1.6,0,2.9-0.2,3.6-0.5c0.8-0.3,1.3-0.8,1.5-1.4
		c0.2-0.6,0.4-1.5,0.4-2.6V17.2c0-1.1-0.1-1.9-0.3-2.6c-0.2-0.6-0.7-1.1-1.5-1.4c-0.8-0.3-2-0.5-3.7-0.5v-2.6h19.2v2.6
		c-2.4,0-3.9,0.3-4.6,1s-1,1.9-1,3.5v11.6l12-10.5c0.8-0.7,1.4-1.3,1.8-1.9c0.4-0.5,0.6-1.1,0.6-1.7c0-1.4-1.3-2-3.9-2v-2.6h17.5
		v2.6c-1.4,0.1-2.5,0.3-3.3,0.5c-0.9,0.2-1.7,0.5-2.5,1c-0.8,0.5-1.7,1.1-2.7,1.9c-1,0.8-2.5,2.1-4.6,3.9l-4,3.5L610,39.5
		c1.2,1.7,2.2,3,3,3.8c0.8,0.8,1.6,1.4,2.5,1.8s2.1,0.6,3.5,0.7V48.5z"/>
	<path d="M654.6,35.8l-0.3,12.6h-34.2v-2.6c2.4,0,3.9-0.3,4.6-1s1-1.9,1-3.5V17.2c0-1.1-0.1-1.9-0.3-2.6c-0.2-0.6-0.7-1.1-1.5-1.4
		c-0.8-0.3-2-0.5-3.7-0.5v-2.6H652l0.5,10h-2.6c-0.6-2.2-1.3-3.8-2-4.7c-0.8-1-1.6-1.5-2.6-1.8c-1-0.2-2.4-0.3-4.3-0.3h-7.2v13.6
		h3.9c1.3,0,2.3-0.1,3-0.4c0.7-0.2,1.1-0.7,1.4-1.3c0.3-0.7,0.4-1.7,0.5-3.1h2.7v12.8h-2.6c-0.1-1.4-0.3-2.5-0.6-3.1
		c-0.3-0.7-0.8-1.1-1.4-1.3c-0.7-0.2-1.6-0.3-3-0.3h-4v9c0,1.5,0,2.6,0.1,3.3s0.3,1.3,0.6,1.7c0.3,0.5,0.9,0.8,1.6,1
		c0.7,0.2,1.8,0.3,3.2,0.3h3.1c1.3,0,2.5-0.2,3.7-0.5c1.2-0.3,2.3-1.2,3.5-2.5c1.1-1.4,1.9-3.5,2.4-6.4H654.6z"/>
	<path d="M687.5,37.4c0,1.2-0.3,2.4-0.8,3.8s-1.3,2.6-2.3,3.8c-1,1.2-2.3,2.2-3.9,3s-3.4,1.1-5.4,1.1c-2,0-4.1-0.4-6.1-1.3
		c-2-0.9-3.7-2.2-5.1-4c-0.6,1.4-1,2.7-1.2,3.9h-2.6V34.6h2.6c0.5,1.9,1.1,3.7,2,5.3s2,3.1,3.5,4.3c1.5,1.2,3.4,1.8,5.6,1.8
		c1.9,0,3.5-0.5,4.6-1.6c1.2-1.1,1.7-2.4,1.7-4c0-0.9-0.2-1.7-0.5-2.4s-0.9-1.3-1.6-1.8s-1.6-1.1-2.8-1.7c-1.2-0.6-2.5-1.3-4-1.9
		c-2.3-1.1-4.2-2.2-5.7-3.3c-1.5-1.1-2.6-2.2-3.4-3.2c-0.8-1-1.3-2-1.6-3c-0.3-0.9-0.4-1.9-0.4-2.9c0-1.7,0.5-3.4,1.4-5.1
		s2.3-3,4.1-4.1c1.8-1.1,3.8-1.6,6.2-1.6c1.8,0,3.5,0.4,5.1,1.2c1.6,0.8,3,1.9,4.2,3.3c0.3-0.8,0.7-1.9,0.9-3.3h2.7v10.7H682
		c-1.9-5.8-5.2-8.8-9.9-8.8c-1.7,0-3.1,0.4-4.1,1.3c-1,0.9-1.5,2.1-1.5,3.5c0,1.1,0.3,2.1,1,2.9s1.5,1.5,2.5,2.1
		c1,0.6,2.7,1.4,5.1,2.5c2.8,1.3,5,2.5,6.6,3.5c1.6,1,2.9,2.2,4,3.7C686.9,33.5,687.5,35.3,687.5,37.4z"/>
	<path d="M725.8,20.3c0,3.2-1,5.5-2.9,7.2c-1.9,1.6-4.2,2.7-6.9,3.1c-2.6,0.5-5.4,0.7-8.3,0.7h-2.5v10c0,1.1,0.1,2,0.4,2.6
		s0.8,1.1,1.6,1.4s2,0.5,3.7,0.5v2.6h-19.3v-2.6c1.6,0,2.9-0.2,3.6-0.5c0.8-0.3,1.3-0.8,1.5-1.4c0.2-0.6,0.4-1.5,0.4-2.6V17.1
		c0-1.1-0.1-1.9-0.3-2.6c-0.2-0.6-0.7-1.1-1.5-1.4c-0.8-0.3-2-0.5-3.7-0.5V9.9l11-0.3c0.6,0,1.2,0,1.9,0c0.7,0,1.2,0,1.6,0
		c0.4,0,1,0,1.8,0c1,0,1.7,0,2.2,0c2.2,0.1,4.4,0.3,6.5,0.7s4.2,1.3,6.3,2.9C724.7,14.6,725.8,17,725.8,20.3z M717.1,20.3
		c0-3.1-0.9-5.1-2.7-6.1c-1.8-1-4.1-1.5-7-1.5c-0.5,0-1.3,0-2.2,0.1v15.4h2.6c2.8,0,5-0.5,6.7-1.4C716.2,25.8,717.1,23.6,717.1,20.3
		z"/>
	<path d="M763.4,35.8l-0.3,12.6h-34.2v-2.6c2.4,0,3.9-0.3,4.6-1s1-1.9,1-3.5V17.2c0-1.1-0.1-1.9-0.3-2.6c-0.2-0.6-0.7-1.1-1.5-1.4
		c-0.8-0.3-2-0.5-3.7-0.5v-2.6h31.9l0.5,10h-2.6c-0.6-2.2-1.3-3.8-2-4.7c-0.8-1-1.6-1.5-2.6-1.8c-1-0.2-2.4-0.3-4.3-0.3h-7.2v13.6
		h3.9c1.3,0,2.3-0.1,3-0.4c0.7-0.2,1.1-0.7,1.4-1.3c0.3-0.7,0.4-1.7,0.5-3.1h2.7v12.8h-2.6c-0.1-1.4-0.3-2.5-0.6-3.1
		c-0.3-0.7-0.8-1.1-1.4-1.3c-0.7-0.2-1.6-0.3-3-0.3h-4v9c0,1.5,0,2.6,0.1,3.3s0.3,1.3,0.6,1.7c0.3,0.5,0.9,0.8,1.6,1
		c0.7,0.2,1.8,0.3,3.2,0.3h3.1c1.3,0,2.5-0.2,3.7-0.5c1.2-0.3,2.3-1.2,3.5-2.5c1.1-1.4,1.9-3.5,2.4-6.4H763.4z"/>
	<path d="M804.9,48.5h-18.1v-2.6c1.5,0,2.6-0.1,3.3-0.3c0.7-0.2,1-0.7,1-1.5c0-0.6-0.1-1.1-0.3-1.7l-1.8-4.5h-12.5l-0.9,2.5
		c-0.5,1.4-0.8,2.4-0.8,3c0,1.1,0.4,1.9,1.3,2.2c0.9,0.3,1.9,0.5,3.1,0.5v2.6H766v-2.6c1.1,0,2-0.2,2.7-0.6s1.4-1.1,2.1-2.3
		c0.7-1.1,1.4-2.7,2.2-4.7l11.1-29h2.7l11.7,29.9c0.8,2.1,1.5,3.5,1.9,4.3c0.4,0.7,0.9,1.3,1.6,1.7c0.7,0.4,1.7,0.6,2.9,0.6V48.5z
		 M788,34.9l-5.3-13.4l-5,13.4H788z"/>
	<path d="M848.3,48.5H838c-0.4-0.4-0.8-1-1.4-1.8c-0.6-0.8-1.2-1.7-1.8-2.8c-0.7-1.1-1.2-1.9-1.6-2.6l-2.6-4.3
		c-1.2-1.9-2.1-3.2-2.6-4c-0.6-0.7-1.3-1.2-2-1.4c-0.8-0.2-2.1-0.3-3.9-0.3h-1.4v10c0,1.1,0.1,1.9,0.3,2.5s0.8,1.1,1.6,1.5
		c0.8,0.3,2.1,0.5,3.7,0.5v2.6h-19.3v-2.6c2.3,0,3.8-0.3,4.5-1c0.7-0.7,1-1.9,1-3.5V17.1c0-1.6-0.3-2.8-1-3.5c-0.7-0.7-2.2-1-4.5-1
		V9.9l8.9-0.3c0.7,0,1.5-0.1,2.3-0.1c0.9,0,1.7,0,2.4,0c0.6,0,1.6,0,2.9,0.1c1.9,0.1,3.7,0.2,5.4,0.3s3,0.4,3.9,0.7
		c1.4,0.4,2.8,1,4,1.8c1.3,0.8,2.3,1.9,3.1,3.3c0.8,1.4,1.2,2.9,1.2,4.7c0,1.3-0.3,2.5-0.8,3.7c-0.6,1.2-1.5,2.3-2.7,3.2
		c-1.2,0.9-2.9,1.7-4.9,2.2c1.4,0.8,2.5,1.8,3.5,3c1,1.2,2.5,3.4,4.5,6.6c1.2,1.8,2.2,3.2,2.9,4.1s1.5,1.6,2.1,1.9
		c0.7,0.3,1.5,0.5,2.5,0.6V48.5z M832.4,20.3c0-3.1-0.9-5.1-2.8-6.1c-1.9-1-4.3-1.5-7.3-1.5c-0.4,0-0.7,0-1,0c-0.2,0-0.5,0-0.8,0
		v15.4h1.8c2.9,0,5.2-0.5,7.2-1.4C831.4,25.8,832.4,23.7,832.4,20.3z"/>
	<path d="M884.2,35.8l-0.3,12.6h-34.2v-2.6c2.4,0,3.9-0.3,4.6-1s1-1.9,1-3.5V17.2c0-1.1-0.1-1.9-0.3-2.6c-0.2-0.6-0.7-1.1-1.5-1.4
		c-0.8-0.3-2-0.5-3.7-0.5v-2.6h31.9l0.5,10h-2.6c-0.6-2.2-1.3-3.8-2-4.7c-0.8-1-1.6-1.5-2.6-1.8c-1-0.2-2.4-0.3-4.3-0.3h-7.2v13.6
		h3.9c1.3,0,2.3-0.1,3-0.4c0.7-0.2,1.1-0.7,1.4-1.3c0.3-0.7,0.4-1.7,0.5-3.1h2.7v12.8h-2.6c-0.1-1.4-0.3-2.5-0.6-3.1
		c-0.3-0.7-0.8-1.1-1.4-1.3c-0.7-0.2-1.6-0.3-3-0.3h-4v9c0,1.5,0,2.6,0.1,3.3s0.3,1.3,0.6,1.7c0.3,0.5,0.9,0.8,1.6,1
		c0.7,0.2,1.8,0.3,3.2,0.3h3.1c1.3,0,2.5-0.2,3.7-0.5c1.2-0.3,2.3-1.2,3.5-2.5c1.1-1.4,1.9-3.5,2.4-6.4H884.2z"/>
</g>
</svg>
