<?xml version="1.0" encoding="utf-8"?>
<!-- Generator: Adobe Illustrator 26.5.0, SVG Export Plug-In . SVG Version: 6.00 Build 0)  -->
<svg version="1.1" id="Layer_1" xmlns="http://www.w3.org/2000/svg" xmlns:xlink="http://www.w3.org/1999/xlink" x="0px" y="0px"
	 viewBox="0 0 221 385" style="enable-background:new 0 0 221 385;" xml:space="preserve">
<style type="text/css">
	.st0{fill:#FFFFFF;}
	.st1{fill:#0066A6;}
	.st2{fill:#808080;}
	.st3{fill:#B1B3B6;}
</style>
<rect class="st0" width="221" height="385"/>
<g>
	<g id="big_finals_00000164512554038996071230000010644472662152380303_">
		<path class="st1" d="M92,4.1c-7.6,0.2-15.1,1.4-22.5,3.5l22.5,13V4.1z"/>
		<path class="st1" d="M92,21.4L68.4,7.8C60,10.3,51.9,14,44.6,18.9l47.4,82V21.4z"/>
		<path class="st1" d="M20.2,103.5H3.6c1.4,14.9,6.4,29.3,14.7,41.8l37.2-21.5L20.2,103.5z"/>
		<path class="st1" d="M3,93.9c0,0.5,0,0.9,0,1.4c0,2.6,0.1,5.1,0.4,7.6h15.2L3,93.9z"/>
		<path class="st1" d="M90.8,102.9L11.6,57.1c-5.2,11.2-8,23.4-8.3,35.8l17.1,9.9h70.4V102.9z"/>
		<path class="st1" d="M43.8,19.3C30,28.5,19,41.3,11.9,56.2l79.9,46.2L43.8,19.3z"/>
		<path class="st1" d="M92.6,233.5v31.2h34.2h1.6v-10.5L92.6,233.5z"/>
		<polygon class="st1" points="90.4,232.1 71.4,264.7 92,264.7 92,233 		"/>
		<polygon class="st1" points="52.1,210.3 4.9,237.5 4.9,264.7 70,264.7 89.3,231.7 		"/>
		<path class="st1" d="M36.3,165.1v0.1h20.1l17.5-30.8l-17.7-10.2l-37.4,21.7C23.6,153.1,29.5,159.6,36.3,165.1z"/>
		<polygon class="st1" points="36.4,201.1 36.4,201.1 35.9,200.8 55.4,166.5 4.9,166.5 4.9,236.7 51.5,209.8 		"/>
		<path class="st1" d="M200.9,165.2h16.6c-1.4-14.9-6.4-29.3-14.7-41.8l-37.1,21.4L200.9,165.2z"/>
		<path class="st1" d="M130.3,166.5l79.2,45.7c5.2-11.2,8-23.4,8.3-35.8l-17.1-9.9H130.3z"/>
		<path class="st1" d="M218,175.5c0-0.5,0-0.9,0-1.4c0-2.6-0.1-5.1-0.4-7.6h-15.2L218,175.5z"/>
		<path class="st1" d="M129,264.8c4.9-0.1,9.8-0.7,14.7-1.6l-14.7-8.5V264.8z"/>
		<path class="st1" d="M177.6,249.4c13.7-9.2,24.6-21.9,31.6-36.8l-79.3-45.8L177.6,249.4z"/>
		<path class="st1" d="M129,253.8l16,9.2c11.3-2.3,22.1-6.8,31.8-13.2L129,167.3V253.8z"/>
		<path class="st1" d="M185.5,104.1h-20.7l-17.5,30.3l17.5,10.1l37.5-21.6C197.6,115.8,192,109.5,185.5,104.1z"/>
		<polygon class="st1" points="148.2,4 129,4 129,37.6 		"/>
		<path class="st1" d="M127.3,41l1.1-2V4H94.2h-1.6v16.9L127.3,41z"/>
		<polygon class="st1" points="182.8,73.1 182.6,73.4 182.9,73.6 165.9,102.9 216.1,102.9 216.1,32.3 164.1,62.3 		"/>
		<polygon class="st1" points="129.7,42.1 163.5,61.7 216.1,31.2 216.1,4 149.7,4 129.7,39.2 		"/>
		<polygon class="st1" points="128.4,41.6 128.4,40.6 128,41.4 		"/>
		<polygon class="st1" points="57.4,165.2 92,165.2 92,144.7 74.7,134.8 		"/>
		<polygon class="st1" points="92.6,166.5 92.6,186 126.3,166.5 		"/>
		<polygon class="st1" points="92.6,105.2 92.6,144.4 127.2,164.4 		"/>
		<polygon class="st1" points="92.6,187.1 92.6,226.5 127.2,167.2 		"/>
		<polygon class="st1" points="92,144 92,104.8 75.1,134.3 		"/>
		<polygon class="st1" points="92.6,21.8 92.6,101.7 126.9,41.7 		"/>
		<polygon class="st1" points="92.6,145.2 92.6,165.2 127.3,165.2 		"/>
		<polygon class="st1" points="93.4,101.9 128.4,81.7 128.4,42.6 127.6,42.1 		"/>
		<polygon class="st1" points="92.6,227.9 92.6,232.4 128.4,253.1 128.4,166.5 128.4,166.5 		"/>
		<polygon class="st1" points="199.4,165.2 164.8,145.3 130.3,165.2 		"/>
		<polygon class="st1" points="128.4,123.5 128.4,104.1 94.8,104.1 		"/>
		<polygon class="st1" points="103.4,121.1 128.4,163.8 128.4,124.5 93.9,104.5 		"/>
		<polygon class="st1" points="128.4,102.9 128.4,82.8 93.7,102.9 		"/>
		<polygon class="st1" points="129,124.9 129,163.7 145.9,134.7 		"/>
		<polygon class="st1" points="37.2,200.4 52.5,209.2 92,186.4 92,166.5 56.6,166.5 		"/>
		<polygon class="st1" points="163.7,104.1 129,104.1 129,123.9 146.3,133.9 		"/>
		<polygon class="st1" points="129.4,165 164.1,145 146.9,135.1 		"/>
		<polygon class="st1" points="129,43 129,81.3 162.1,62.2 		"/>
		<polygon class="st1" points="181.6,73.6 162.9,62.8 129,82.4 129,102.9 164.6,102.9 		"/>
		<polygon class="st1" points="90.1,231.1 92,227.9 92,187.6 53.3,209.9 		"/>
		<polygon class="st1" points="92,232.2 92,229.5 90.8,231.5 		"/>
		<polygon class="st1" points="21.8,103.5 56.3,123.4 90.8,103.5 		"/>
		<polygon class="st1" points="91.3,104.1 57.1,123.9 74.3,133.9 		"/>
	</g>
</g>
<g>
	<path d="M17.6,277h4.3v18.4H18l-8.2-11.8v11.8H5.5V277h4.3l7.8,11.2V277z"/>
	<path d="M26.5,295.4V277h13.1v3.6h-8.7v3.8h7.4v3.5h-7.5v3.8h8.9v3.6H26.5V295.4z"/>
	<path d="M66.3,277l-5.5,18.4h-3.3l-3.2-11l-3.2,11h-3.3L42.3,277h4.2l3.1,11l3.1-11h3.1l3.2,11l3.1-11H66.3z"/>
	<path d="M90.5,277l-6.3,18.4h-4.8L73.1,277h4.1l4.6,13.3l4.6-13.3H90.5z"/>
	<path d="M89.5,295.4l6.6-18.4h4.5l6.6,18.4h-4.3l-1.4-3.9h-6.2l-1.4,3.9H89.5z M96.2,287.8h4.3l-2.1-6.6L96.2,287.8z"/>
	<path d="M125.1,295.4h-4.5l-2.8-6.7h-3.2v6.7h-4.3V277h8.1c1.5,0,2.8,0.2,3.7,0.7c1,0.5,1.6,1.2,2.1,2c0.4,0.9,0.7,1.8,0.7,2.9
		c0,1-0.1,1.8-0.4,2.4c-0.3,0.7-0.6,1.2-1.1,1.7s-1,0.8-1.6,1.2L125.1,295.4z M117.8,285.4c0.8,0,1.5-0.3,2-0.8s0.7-1.1,0.7-1.8
		c0-0.7-0.3-1.4-0.8-1.8c-0.5-0.5-1.1-0.7-1.8-0.7h-3.2v5.2h3.1V285.4z"/>
	<path d="M129,277h4.3v18.4H129V277z"/>
	<path d="M145.9,295.7c-1.8,0-3.3-0.4-4.6-1.2c-1.3-0.8-2.3-1.9-3-3.3s-1.1-3.1-1.1-5s0.4-3.6,1.1-5c0.7-1.4,1.7-2.5,3-3.3
		s2.8-1.2,4.6-1.2c1.7,0,3.3,0.4,4.6,1.2c1.3,0.8,2.3,1.9,3,3.3s1.1,3.1,1.1,5s-0.4,3.6-1.1,5c-0.7,1.4-1.7,2.5-3,3.3
		S147.7,295.7,145.9,295.7z M145.9,292.2c0.8,0,1.5-0.2,2.1-0.6s1.1-1,1.4-1.9c0.3-0.9,0.5-2,0.5-3.4c0-1.5-0.2-2.6-0.5-3.5
		s-0.8-1.5-1.4-1.9c-0.6-0.4-1.3-0.6-2.1-0.6s-1.5,0.2-2.1,0.6s-1.1,1.1-1.4,1.9c-0.3,0.9-0.5,2.1-0.5,3.5s0.2,2.5,0.5,3.4
		s0.8,1.5,1.4,1.9C144.4,292,145.1,292.2,145.9,292.2z"/>
	<path d="M173.2,295.4h-4.5l-2.8-6.7h-3.2v6.7h-4.3V277h8.1c1.5,0,2.8,0.2,3.7,0.7c1,0.5,1.6,1.2,2.1,2c0.4,0.9,0.7,1.8,0.7,2.9
		c0,1-0.1,1.8-0.4,2.4c-0.3,0.7-0.6,1.2-1.1,1.7s-1,0.8-1.6,1.2L173.2,295.4z M165.8,285.4c0.8,0,1.5-0.3,2-0.8s0.7-1.1,0.7-1.8
		c0-0.7-0.3-1.4-0.8-1.8c-0.5-0.5-1.1-0.7-1.8-0.7h-3.2v5.2h3.1V285.4z"/>
	<path d="M191.8,288.1c0,1.5-0.2,2.9-0.7,4s-1.3,2-2.4,2.6c-1.1,0.6-2.6,0.9-4.5,0.9s-3.4-0.3-4.5-0.9s-1.9-1.5-2.4-2.7
		c-0.5-1.1-0.7-2.5-0.7-4v-11h4.4v11.3c0,1.3,0.3,2.3,0.9,2.9c0.6,0.6,1.4,0.9,2.3,0.9c0.6,0,1.2-0.1,1.7-0.4s0.9-0.7,1.2-1.2
		s0.4-1.3,0.4-2.1V277h4.4L191.8,288.1L191.8,288.1z"/>
	<path d="M196,295.4V277h6.4l3.6,12.2l3.6-12.2h6.4v18.4h-4.4v-13.7l-4,13.7h-3.2l-4-13.7v13.7H196z"/>
	<path d="M5.2,318.4v-6.2H6c0.8,4,2.7,6,5.7,6c1.3,0,2.4-0.4,3.1-1.2c0.7-0.8,1.1-1.6,1.1-2.6s-0.3-1.8-1-2.4
		c-0.6-0.6-1.8-1.3-3.6-2.1c-1.5-0.7-2.7-1.2-3.5-1.7s-1.4-1.1-1.8-1.9s-0.7-1.6-0.7-2.5c0-1.4,0.5-2.5,1.4-3.4s2.1-1.4,3.6-1.4
		c0.8,0,1.6,0.1,2.3,0.4s1.5,0.8,2.2,1.6c0.4-0.5,0.7-1.1,0.7-1.7h0.6v5h-0.6c-0.4-1.5-1-2.6-1.9-3.4s-2-1.3-3.2-1.3
		c-1.1,0-2,0.3-2.5,0.9s-0.8,1.3-0.8,2c0,0.9,0.3,1.6,1,2.2s1.9,1.3,3.6,2.1c1.6,0.7,2.8,1.3,3.6,1.8c0.7,0.4,1.3,1.1,1.8,1.9
		s0.7,1.7,0.7,2.7c0,1.6-0.5,3-1.6,4s-2.6,1.5-4.4,1.5c-2.1,0-3.9-0.8-5.3-2.4c-0.3,0.4-0.5,1.1-0.7,1.9H5.2V318.4z"/>
	<path d="M36.5,309h-10v4.6c0,1.5,0,2.5,0.1,3s0.3,0.8,0.6,1c0.3,0.2,0.9,0.3,1.7,0.3h0.5v0.6h-8.6V318h0.5c0.8,0,1.4-0.1,1.7-0.3
		c0.3-0.2,0.5-0.5,0.6-1c0.1-0.4,0.1-1.5,0.1-3.1v-9.4c0-1.5,0-2.5-0.1-3c-0.1-0.4-0.3-0.7-0.6-0.9c-0.3-0.2-0.9-0.3-1.9-0.3h-0.4
		v-0.6h8.6v0.6h-0.4c-0.9,0-1.5,0.1-1.8,0.2c-0.3,0.2-0.5,0.4-0.6,0.9c-0.1,0.4-0.1,1.4-0.1,3v3.8h10v-3.8c0-1.5,0-2.5-0.1-3
		c-0.1-0.4-0.3-0.7-0.6-0.9c-0.3-0.2-0.9-0.3-1.9-0.3h-0.5v-0.6H42v0.6h-0.3c-0.9,0-1.6,0.1-1.9,0.2c-0.3,0.2-0.5,0.4-0.6,0.9
		c-0.1,0.4-0.1,1.4-0.1,3v9.4c0,1.5,0,2.5,0.1,3s0.3,0.8,0.6,1s0.9,0.3,1.8,0.3H42v0.6h-8.7V318H34c0.8,0,1.4-0.1,1.7-0.3
		c0.3-0.2,0.5-0.5,0.6-1c0.1-0.4,0.1-1.5,0.1-3.1L36.5,309L36.5,309z"/>
	<path d="M56.2,311.6h-7.3l-0.5,1.2c-0.7,1.8-1.1,2.9-1.1,3.4c0,0.6,0.2,1,0.6,1.3c0.4,0.3,0.9,0.4,1.5,0.4v0.6h-5.7V318
		c0.8-0.1,1.5-0.4,1.9-0.9s0.9-1.4,1.5-2.9c0-0.1,0.3-0.7,0.7-1.6l5.6-13.3H54l6.4,15.2l0.9,2c0.2,0.5,0.5,0.8,0.8,1.1
		c0.3,0.3,0.8,0.4,1.5,0.5v0.6H56V318c0.9,0,1.5-0.1,1.9-0.2c0.3-0.1,0.5-0.4,0.5-0.8c0-0.2-0.2-0.8-0.6-1.9L56.2,311.6z M56,310.9
		l-3.4-8.2l-3.4,8.2H56z"/>
	<path d="M70.6,309.2l5.8-5.3c1.4-1.2,2-2.1,2-2.6c0-0.8-0.7-1.2-2-1.2v-0.6h7.2v0.6c-0.6,0-1.2,0.1-1.8,0.4c-0.6,0.2-1.1,0.6-1.6,1
		s-1.4,1.2-2.8,2.5l-3.5,3.2l7.2,7.2c1.6,1.7,2.7,2.7,3.3,3c0.6,0.3,1.3,0.5,2.2,0.5v0.6h-9.9V318H77c1.1,0,1.7-0.1,2-0.3
		c0.3-0.2,0.4-0.4,0.4-0.7c0-0.4-0.7-1.3-2-2.6l-5.4-5.5l-1.4,1.2v3.5c0,1.5,0,2.5,0.1,3s0.3,0.8,0.6,1c0.3,0.2,0.9,0.3,1.8,0.3h0.4
		v0.6h-8.6V318h0.6c0.8,0,1.4-0.1,1.7-0.3c0.3-0.2,0.5-0.5,0.6-1c0.1-0.4,0.1-1.5,0.1-3.1v-9.4c0-1.6,0-2.6-0.1-3s-0.3-0.7-0.6-0.9
		c-0.3-0.2-1-0.2-2-0.2v-0.6h8.5v0.6h-0.4c-0.9,0-1.6,0.1-1.9,0.2c-0.3,0.2-0.5,0.4-0.6,0.9c-0.1,0.4-0.1,1.4-0.1,3L70.6,309.2
		L70.6,309.2z"/>
	<path d="M103.7,312.7h0.7l-0.4,6H88.1V318h0.4c1,0,1.6-0.1,1.8-0.4c0.3-0.3,0.5-0.6,0.5-1c0.1-0.4,0.1-1.4,0.1-3v-9.4
		c0-1.5,0-2.4-0.1-2.9s-0.3-0.8-0.6-1c-0.3-0.2-0.9-0.3-1.8-0.3v-0.6h13.7l0.5,4.8H102c-0.3-1.3-0.7-2.3-1.1-2.8
		c-0.4-0.6-1-0.9-1.6-1.1c-0.6-0.1-1.6-0.2-2.9-0.2h-2.7v8h2c0.9,0,1.6-0.1,2-0.2c0.4-0.2,0.6-0.4,0.7-0.7c0.1-0.3,0.2-1,0.2-1.9
		h0.7v6.6h-0.7c0-1.1-0.1-1.8-0.3-2.1c-0.2-0.4-0.4-0.6-0.8-0.7c-0.3-0.1-0.9-0.2-1.7-0.2h-2.1v4.5c0,2.3,0.1,3.6,0.4,4
		s1.1,0.6,2.4,0.6H98c1,0,1.8-0.1,2.5-0.4c0.6-0.3,1.3-0.8,1.9-1.6C102.9,315.2,103.4,314.1,103.7,312.7z"/>
	<path d="M107.6,318.4v-6.2h0.7c0.8,4,2.7,6,5.7,6c1.3,0,2.4-0.4,3.1-1.2c0.7-0.8,1.1-1.6,1.1-2.6s-0.3-1.8-1-2.4
		c-0.6-0.6-1.8-1.3-3.6-2.1c-1.5-0.7-2.7-1.2-3.5-1.7s-1.4-1.1-1.8-1.9s-0.7-1.6-0.7-2.5c0-1.4,0.5-2.5,1.4-3.4s2.1-1.4,3.6-1.4
		c0.8,0,1.6,0.1,2.3,0.4c0.7,0.3,1.5,0.8,2.2,1.6c0.4-0.5,0.7-1.1,0.7-1.7h0.6v5H118c-0.4-1.5-1-2.6-1.9-3.4s-2-1.3-3.2-1.3
		c-1.1,0-2,0.3-2.5,0.9s-0.8,1.3-0.8,2c0,0.9,0.3,1.6,1,2.2s1.9,1.3,3.6,2.1c1.6,0.7,2.8,1.3,3.6,1.8c0.7,0.4,1.3,1.1,1.8,1.9
		s0.7,1.7,0.7,2.7c0,1.6-0.5,3-1.6,4s-2.6,1.5-4.4,1.5c-2.1,0-3.9-0.8-5.3-2.4c-0.3,0.4-0.5,1.1-0.7,1.9h-0.7V318.4z"/>
	<path d="M128.9,309.6v4c0,1.5,0,2.5,0.1,3s0.3,0.8,0.6,1s0.9,0.3,1.8,0.3h0.6v0.6h-8.8V318h0.5c0.8,0,1.4-0.1,1.7-0.3
		c0.3-0.2,0.5-0.5,0.6-1c0.1-0.4,0.1-1.5,0.1-3.1v-9.4c0-1.5,0-2.5-0.1-3c-0.1-0.4-0.3-0.7-0.6-0.9c-0.3-0.2-0.9-0.3-1.9-0.3h-0.4
		v-0.6l2.4-0.1c1.9-0.1,3.4-0.1,4.5-0.1c2,0,3.5,0.2,4.6,0.5s1.9,0.9,2.6,1.7c0.7,0.8,1,1.8,1,3c0,1-0.2,2-0.7,2.8s-1.1,1.4-2,1.8
		s-2.4,0.6-4.6,0.6H128.9z M128.9,308.9h1.4c1.1,0,2-0.1,2.7-0.3c0.7-0.2,1.2-0.7,1.7-1.4s0.7-1.6,0.7-2.6c0-1.6-0.4-2.7-1.2-3.5
		c-0.8-0.7-2-1.1-3.8-1.1c-0.6,0-1.1,0-1.5,0.1L128.9,308.9L128.9,308.9z"/>
	<path d="M155.6,312.7h0.7l-0.4,6H140V318h0.4c1,0,1.6-0.1,1.8-0.4c0.3-0.3,0.5-0.6,0.5-1c0.1-0.4,0.1-1.4,0.1-3v-9.4
		c0-1.5,0-2.4-0.1-2.9s-0.3-0.8-0.6-1s-0.9-0.3-1.8-0.3v-0.6H154l0.5,4.8h-0.7c-0.3-1.3-0.7-2.3-1.1-2.8c-0.4-0.6-1-0.9-1.6-1.1
		c-0.6-0.1-1.6-0.2-2.9-0.2h-2.7v8h2c0.9,0,1.6-0.1,2-0.2c0.4-0.2,0.6-0.4,0.7-0.7c0.1-0.3,0.2-1,0.2-1.9h0.7v6.6h-0.7
		c0-1.1-0.1-1.8-0.3-2.1c-0.2-0.4-0.4-0.6-0.8-0.7c-0.3-0.1-0.9-0.2-1.7-0.2h-2.1v4.5c0,2.3,0.1,3.6,0.4,4c0.3,0.4,1.1,0.6,2.4,0.6
		h1.4c1,0,1.8-0.1,2.5-0.4c0.6-0.3,1.3-0.8,1.9-1.6C154.8,315.2,155.3,314.1,155.6,312.7z"/>
	<path d="M170.3,311.6H163l-0.5,1.2c-0.7,1.8-1.1,2.9-1.1,3.4c0,0.6,0.2,1,0.6,1.3c0.4,0.3,0.9,0.4,1.5,0.4v0.6h-5.7V318
		c0.8-0.1,1.5-0.4,1.9-0.9s0.9-1.4,1.5-2.9c0-0.1,0.3-0.7,0.7-1.6l5.6-13.3h0.6l6.4,15.2l0.9,2c0.2,0.5,0.5,0.8,0.8,1.1
		c0.3,0.3,0.8,0.4,1.5,0.5v0.6h-7.5V318c0.9,0,1.5-0.1,1.9-0.2c0.3-0.1,0.5-0.4,0.5-0.8c0-0.2-0.2-0.8-0.6-1.9L170.3,311.6z
		 M170.1,310.9l-3.4-8.2l-3.4,8.2H170.1z"/>
	<path d="M199.1,318.6H194c-0.9-0.6-2.3-2.3-4.2-5c-0.6-0.9-1.2-1.7-1.9-2.5c-0.6-0.8-1.1-1.3-1.3-1.5s-0.6-0.3-1.1-0.3h-0.8v4.3
		c0,1.5,0,2.5,0.1,3s0.3,0.8,0.6,1s0.9,0.3,1.8,0.3h0.9v0.6h-9.2V318h0.6c0.8,0,1.4-0.1,1.7-0.3c0.3-0.2,0.5-0.5,0.6-1
		c0.1-0.4,0.1-1.5,0.1-3.1v-9.4c0-1.5,0-2.5-0.1-3c-0.1-0.4-0.3-0.7-0.6-0.9c-0.3-0.2-0.9-0.3-1.9-0.3H179v-0.6l2.7-0.1
		c1.8-0.1,3.3-0.1,4.4-0.1c1.8,0,3.3,0.2,4.5,0.5c1.1,0.3,2.1,0.9,2.8,1.7c0.7,0.8,1.1,1.7,1.1,2.8c0,1.3-0.5,2.3-1.4,3.2
		c-0.9,0.9-2.3,1.4-4.1,1.7c0.8,0.4,2.1,1.8,3.9,4.2c1.5,1.9,2.6,3.2,3.4,3.8c0.8,0.6,1.8,0.9,2.9,1L199.1,318.6L199.1,318.6z
		 M184.6,308.8c0.7,0,1.4,0,2.2-0.1c0.8,0,1.4-0.1,2-0.3c0.6-0.2,1-0.4,1.3-0.7c0.3-0.3,0.6-0.8,0.8-1.3s0.3-1.2,0.3-1.9
		c0-1.3-0.3-2.4-1-3.2c-0.7-0.8-2.1-1.2-4.4-1.2c-0.3,0-0.7,0-1.2,0.1L184.6,308.8L184.6,308.8z"/>
	<path d="M216.3,312.7h0.7l-0.4,6h-15.9V318h0.4c1,0,1.6-0.1,1.8-0.4c0.3-0.3,0.5-0.6,0.5-1c0.1-0.4,0.1-1.4,0.1-3v-9.4
		c0-1.5,0-2.4-0.1-2.9s-0.3-0.8-0.6-1s-0.9-0.3-1.8-0.3v-0.6h13.7l0.5,4.8h-0.7c-0.3-1.3-0.7-2.3-1.1-2.8c-0.4-0.6-1-0.9-1.6-1.1
		c-0.6-0.1-1.6-0.2-2.9-0.2h-2.7v8h2c0.9,0,1.6-0.1,2-0.2c0.4-0.2,0.6-0.4,0.7-0.7c0.1-0.3,0.2-1,0.2-1.9h0.7v6.6h-0.7
		c0-1.1-0.1-1.8-0.3-2.1c-0.2-0.4-0.4-0.6-0.8-0.7c-0.3-0.1-0.9-0.2-1.7-0.2h-2.1v4.5c0,2.3,0.1,3.6,0.4,4c0.3,0.4,1.1,0.6,2.4,0.6
		h1.4c1,0,1.8-0.1,2.5-0.4c0.6-0.3,1.3-0.8,1.9-1.6C215.5,315.2,216,314.1,216.3,312.7z"/>
</g>
<rect x="5.1" y="330.8" class="st2" width="212.5" height="51.4"/>
<rect x="61.4" y="342" class="st0" width="0.7" height="28.9"/>
<polygon class="st0" points="49,351.7 45.8,351.7 45.6,351.7 45.5,351.9 43.2,356.7 40.9,351.9 40.8,351.7 40.7,351.7 37.6,351.7 
	37.3,351.7 37.3,352 37.3,353.7 37.3,354 37.6,354 38.1,354 38.1,360.8 37.6,360.8 37.3,360.8 37.3,361.1 37.3,362.7 37.3,363 
	37.6,363 41,363 41.3,363 41.3,362.7 41.3,361.1 41.3,360.8 41,360.8 40.4,360.8 40.4,355.9 43,361.3 43.2,361.8 43.5,361.3 
	46.1,355.9 46.1,360.8 45.5,360.8 45.2,360.8 45.2,361.1 45.2,362.7 45.2,363 45.5,363 49,363 49.3,363 49.3,362.7 49.3,361.1 
	49.3,360.8 49,360.8 48.4,360.8 48.4,354 49,354 49.3,354 49.3,353.7 49.3,352 49.3,351.7 "/>
<path class="st0" d="M29,360.8h-1l-2.9-6.9h0.6v-2.2h-4.9v2.2h0.7l-3,6.9h-1.2v2.2h4.3v-2.2H21l0.5-1.2h3.6l0.5,1.1h-0.7v2.2h4.3
	v-2.2H29V360.8z M24.1,357.4h-1.7l0.8-1.9L24.1,357.4z"/>
<polygon class="st0" points="45.3,343.1 21.2,343.1 20.8,343.1 20.8,343.5 20.8,349.9 20.8,350.2 21.2,350.2 25.3,350.2 25.7,350.2 
	25.7,349.9 25.7,347.5 30.8,347.5 30.8,364.5 28.4,364.5 28.1,364.5 28.1,364.9 28.1,369 28.1,369.4 28.4,369.4 38.1,369.4 
	38.4,369.4 38.4,369 38.4,364.9 38.4,364.5 38.1,364.5 35.7,364.5 35.7,347.5 40.8,347.5 40.8,349.9 40.8,350.2 41.1,350.2 
	45.3,350.2 45.7,350.2 45.7,349.9 45.7,343.5 45.7,343.1 "/>
<polygon class="st3" points="36.4,366.5 37.4,365.5 37.4,368.3 36.4,367.4 "/>
<polygon class="st3" points="34.7,365.5 33.7,366.5 33.7,345.5 34.7,346.5 "/>
<polygon class="st3" points="22.9,345.1 21.8,344.1 44.2,344.1 42.8,345.1 "/>
<polygon class="st3" points="44.7,349.3 43.7,348.3 43.7,345.7 44.7,344.7 "/>
<path class="st0" d="M88.9,347.5h-1.1c0-0.8-0.2-1.5-0.6-2.1c-0.2-0.4-0.6-0.7-1.1-0.8c-0.4-0.1-0.8-0.1-1.2-0.1h-2v11.2
	c0,0.4,0,0.7,0.1,1.1c0.1,0.3,0.4,0.5,0.6,0.6c0.5,0.2,1,0.2,1.5,0.2v1.1h-7.7v-1.1c0.6,0.1,1.3-0.1,1.8-0.4
	c0.3-0.4,0.5-0.9,0.4-1.4v-11.2H78c-0.5,0-1.1,0-1.6,0.1c-0.4,0.1-0.8,0.4-1.1,0.8c-0.4,0.6-0.6,1.4-0.5,2.1h-1.1v-4.4H89
	L88.9,347.5z"/>
<path class="st0" d="M103.8,353.4l-0.1,5H90.1v-1.1c0.6,0.1,1.3-0.1,1.8-0.4c0.3-0.4,0.5-0.9,0.4-1.4v-9.6c0-0.4,0-0.7-0.1-1.1
	c-0.1-0.3-0.3-0.5-0.6-0.6c-0.5-0.2-1-0.2-1.5-0.2v-1h12.7l0.2,4h-1.1c-0.1-0.7-0.4-1.3-0.8-1.9c-0.3-0.4-0.6-0.6-1.1-0.7
	c-0.6-0.1-1.1-0.1-1.7-0.1h-2.8v5.4H97c0.4,0,0.8,0,1.2-0.1c0.3-0.1,0.5-0.3,0.6-0.5c0.1-0.4,0.2-0.8,0.2-1.2h1.1v5.1H99
	c0-0.4-0.1-0.8-0.2-1.2c-0.1-0.3-0.3-0.4-0.6-0.5c-0.4-0.1-0.8-0.2-1.2-0.1h-1.5v3.7c0,0.6,0,1.1,0,1.3c0,0.2,0.1,0.5,0.2,0.7
	c0.2,0.2,0.4,0.3,0.6,0.4c0.4,0.1,0.8,0.1,1.3,0.1h1.2c0.5,0,1-0.1,1.5-0.2c0.6-0.2,1-0.5,1.4-1c0.5-0.8,0.9-1.6,1-2.6h1.1V353.4z"
	/>
<path class="st0" d="M135.7,357.1c-0.3-0.2-0.5-0.4-0.7-0.7c-0.2-0.3-0.4-0.9-0.7-1.7l-4.7-11.9h-1.1l-4.4,11.5
	c-0.2,0.6-0.5,1.3-0.9,1.9c-0.2,0.4-0.5,0.7-0.8,0.9c-0.2,0.1-0.3,0.1-0.5,0.2c-0.3,0-0.5-0.1-0.8-0.2c-0.4-0.2-0.8-0.5-1.1-0.8
	c-0.5-0.5-0.9-1.1-1.4-1.7l-3.7-4.9l2.7-3.1c0.6-0.7,1.1-1.2,1.4-1.5s0.7-0.5,1.1-0.7c0.5-0.2,1-0.3,1.5-0.3V343h-6.3v1.1h0.5
	c0.4,0,0.7,0,1.1,0.2c0.2,0.1,0.3,0.3,0.3,0.5s0,0.3-0.1,0.4s-0.2,0.3-0.4,0.6l-2.4,2.8l-2.1-2.7c-0.3-0.4-0.5-0.8-0.7-1.2
	c0-0.2,0.1-0.4,0.3-0.5c0.3-0.1,0.6-0.1,1-0.1h0.6V343h-8.3v1.1c0.5,0,0.9,0,1.4,0.2c0.3,0.1,0.6,0.3,0.9,0.6
	c0.2,0.3,0.7,0.7,1.2,1.5l3.7,4.9l-2.7,3.2c-0.6,0.7-1.2,1.3-1.9,2c-0.4,0.3-0.8,0.6-1.3,0.8c-0.4,0.1-0.9,0.2-1.3,0.2v1.1h6.7v-1.1
	c-0.4,0-0.7,0-1.1,0c-0.2,0-0.5-0.1-0.7-0.3c-0.2-0.1-0.3-0.4-0.3-0.6c0.1-0.6,0.4-1.1,0.8-1.5l2.4-2.8l2.5,3.2
	c0.3,0.3,0.5,0.7,0.6,1.1c0,0.3-0.2,0.6-0.5,0.7s-0.7,0.2-1.1,0.1h-0.7v1.1h12.9v-1.1c-0.4,0-0.8-0.1-1.2-0.2
	c-0.4-0.1-0.6-0.5-0.5-0.9c0-0.4,0.2-0.8,0.3-1.2l0.4-1h4.9l0.7,1.8c0.1,0.2,0.1,0.4,0.1,0.7c0,0.3-0.1,0.5-0.4,0.6
	c-0.4,0.1-0.9,0.1-1.3,0.1v1.1h7.2v-1.1C136.5,357.4,136.1,357.3,135.7,357.1z M126.1,353l2-5.3l2.1,5.3H126.1z"/>
<path class="st0" d="M148.4,353.9c0,0.5-0.1,1-0.3,1.5s-0.5,1-0.9,1.5s-0.9,0.9-1.5,1.2c-0.7,0.3-1.4,0.5-2.1,0.4
	c-0.8,0-1.6-0.2-2.4-0.5c-0.8-0.3-1.5-0.9-2-1.5c-0.2,0.5-0.4,1-0.4,1.5h-1v-5.1h1c0.2,0.7,0.4,1.4,0.8,2.1c0.3,0.6,0.8,1.2,1.4,1.6
	c0.6,0.5,1.4,0.7,2.1,0.7c0.7,0,1.3-0.2,1.8-0.6c0.7-0.6,0.9-1.6,0.5-2.5c-0.2-0.3-0.4-0.5-0.6-0.7c-0.3-0.3-0.7-0.5-1.1-0.7
	c-0.5-0.2-1-0.5-1.6-0.8c-0.8-0.4-1.5-0.8-2.2-1.3c-0.5-0.4-0.9-0.8-1.3-1.3c-0.3-0.4-0.5-0.7-0.6-1.2c-0.1-0.3-0.2-0.7-0.2-1.1
	c0-0.7,0.2-1.4,0.5-2c0.4-0.7,0.9-1.2,1.6-1.6c0.7-0.4,1.6-0.6,2.4-0.6c0.7,0,1.4,0.2,2,0.5s1.2,0.7,1.7,1.3
	c0.2-0.4,0.3-0.9,0.4-1.3h1.1v4.2h-1.1c-0.7-2.3-2-3.4-3.8-3.4c-0.6,0-1.1,0.2-1.6,0.5c-0.4,0.3-0.6,0.8-0.6,1.3
	c0,0.4,0.1,0.8,0.4,1.1c0.3,0.3,0.6,0.6,1,0.8c0.4,0.2,1.1,0.6,2,1s1.7,0.9,2.6,1.4c0.6,0.4,1.1,0.9,1.6,1.5
	C148.2,352.4,148.5,353.1,148.4,353.9z"/>
<path class="st0" d="M171.8,358.4h-7.2v-1.1c0.4,0,0.9,0,1.3-0.1c0.3-0.1,0.4-0.3,0.4-0.6c0-0.2-0.1-0.5-0.1-0.7l-0.7-1.8h-4.9
	l-0.4,1c-0.2,0.4-0.3,0.8-0.3,1.2c0,0.4,0.2,0.7,0.5,0.9c0.4,0.1,0.8,0.2,1.2,0.2v1.1h-5.3v-1.1c0.4,0,0.7-0.1,1.1-0.2
	c0.4-0.2,0.6-0.5,0.8-0.9c0.3-0.6,0.6-1.2,0.9-1.9l4.4-11.5h1.1l4.6,11.9c0.3,0.8,0.6,1.4,0.7,1.7c0.1,0.3,0.4,0.5,0.7,0.7
	c0.4,0.2,0.8,0.3,1.2,0.2V358.4z M165,353.1l-2.1-5.3l-2,5.3H165z"/>
<path class="st0" d="M205.1,358.4h-7.7v-1.1c0.5,0,1,0,1.5-0.2c0.3-0.1,0.5-0.3,0.6-0.6c0.1-0.3,0.2-0.7,0.1-1.1v-9.6l-5.8,12.4
	h-0.7l-5.8-12.4v9.1c0,0.4,0,0.7,0,1.1c0,0.2,0.1,0.5,0.3,0.7s0.4,0.3,0.7,0.4c0.4,0.1,0.8,0.1,1.3,0.1v1.1H184v-1.1
	c0.4,0,0.8,0,1.3-0.1c0.3-0.1,0.5-0.2,0.7-0.4c0.1-0.2,0.2-0.4,0.2-0.7c0-0.4,0-0.7,0-1.1v-8.5c0-0.5,0-0.9-0.1-1.4
	c-0.1-0.3-0.3-0.5-0.6-0.7c-0.5-0.2-1-0.3-1.5-0.2V343h5.6l5.1,10.8l5.1-10.8h5.5v1.1c-0.6-0.1-1.3,0.1-1.8,0.4
	c-0.3,0.4-0.5,0.9-0.4,1.4v9.6c0,0.3,0,0.7,0.1,1s0.3,0.5,0.6,0.6c0.5,0.2,1,0.2,1.5,0.2L205.1,358.4z"/>
<path class="st0" d="M82.7,363.7c-0.2,0-0.4,0-0.6,0.1c-0.1,0.1-0.2,0.2-0.2,0.3c0,0.2,0,0.4,0,0.6v2.3c0,0.3,0,0.6,0,1
	c0,0.2-0.1,0.5-0.2,0.7c-0.2,0.4-0.6,0.7-1,0.9c-0.4,0.2-0.8,0.2-1.2,0.2c-0.3,0-0.6,0-0.9-0.1s-0.6-0.2-0.8-0.4
	c-0.3-0.2-0.5-0.4-0.6-0.7c-0.1-0.2-0.1-0.3-0.2-0.5c0-0.1-0.1-0.3-0.1-0.4s0-0.3,0-0.5v-2.6c0-0.2,0-0.4-0.2-0.6
	c-0.2-0.1-0.5-0.2-0.7-0.2v-0.4h3.2v0.4c-0.2,0-0.4,0-0.6,0.1c-0.1,0-0.2,0.1-0.3,0.2c0,0.1-0.1,0.3-0.1,0.4v2.6c0,0.2,0,0.5,0,0.7
	s0.1,0.4,0.1,0.5c0.1,0.3,0.3,0.5,0.5,0.6c0.3,0.1,0.5,0.2,0.8,0.2s0.6-0.1,0.9-0.2s0.5-0.4,0.6-0.6s0.1-0.4,0.2-0.6
	c0-0.3,0-0.5,0-0.8v-2.3c0-0.1,0-0.3,0-0.4s0-0.2-0.1-0.3c-0.1-0.1-0.2-0.1-0.3-0.2c-0.2,0-0.4,0-0.5,0v-0.4h2.3L82.7,363.7z"/>
<path class="st0" d="M97.6,363.7c-0.2,0-0.4,0-0.6,0.1c-0.1,0-0.2,0.1-0.2,0.3c0,0.2,0,0.4,0,0.6v5h-0.4l-4.1-4.9v3.5
	c0,0.2,0,0.4,0,0.6c0,0.1,0.1,0.2,0.2,0.3c0.2,0.1,0.4,0.1,0.7,0.1v0.4h-2.3v-0.4c0.2,0,0.4,0,0.6-0.1c0.1-0.1,0.2-0.2,0.2-0.3
	c0-0.2,0-0.4,0-0.6V365c0-0.3,0-0.5,0-0.6s0-0.2-0.1-0.3c-0.1-0.1-0.1-0.2-0.3-0.2c-0.2-0.1-0.3-0.1-0.5-0.1v-0.4h1.8l3.6,4.3v-2.9
	c0-0.2,0-0.4,0-0.5s-0.1-0.2-0.2-0.3c-0.2-0.1-0.4-0.1-0.6-0.1v-0.4h2.4L97.6,363.7z"/>
<path class="st0" d="M108.7,369.6h-3.2v-0.4c0.2,0,0.4,0,0.6-0.1c0.1,0,0.2-0.1,0.3-0.2c0-0.1,0.1-0.3,0.1-0.4v-4
	c0-0.2,0-0.4-0.2-0.6c-0.2-0.1-0.5-0.2-0.8-0.2v-0.4h3.2v0.4c-0.2,0-0.4,0-0.6,0.1c-0.1,0-0.2,0.1-0.3,0.2c0,0.1-0.1,0.3-0.1,0.4v4
	c0,0.1,0,0.3,0.1,0.4c0,0.1,0.1,0.2,0.3,0.2c0.2,0.1,0.4,0.1,0.6,0.1V369.6z"/>
<path class="st0" d="M123.6,363.7c-0.1,0-0.3,0-0.4,0.1c-0.1,0-0.2,0.1-0.3,0.2c-0.1,0.1-0.2,0.2-0.2,0.3c-0.1,0.1-0.2,0.4-0.3,0.6
	l-2.1,4.8H120l-2.1-5c-0.1-0.2-0.2-0.4-0.3-0.7c-0.1-0.1-0.2-0.2-0.3-0.2c-0.2-0.1-0.4-0.1-0.6-0.1v-0.4h3.2v0.4
	c-0.2,0-0.4,0-0.6,0.1c-0.1,0-0.2,0.2-0.2,0.3c0,0.2,0,0.3,0.1,0.4l1.4,3.4l1.3-3.1c0.1-0.2,0.1-0.4,0.2-0.6c0-0.2-0.1-0.3-0.2-0.4
	c-0.2-0.1-0.4-0.1-0.6-0.1v-0.4h2.3L123.6,363.7z"/>
<path class="st0" d="M137.2,367.5l-0.1,2.1h-5.6v-0.4c0.3,0,0.5,0,0.7-0.2c0.1-0.2,0.2-0.4,0.2-0.6v-4c0-0.1,0-0.3,0-0.4
	s-0.1-0.2-0.3-0.2c-0.2-0.1-0.4-0.1-0.6-0.1v-0.4h5.2l0.1,1.6h-0.4c-0.1-0.3-0.2-0.5-0.3-0.8c-0.1-0.1-0.3-0.2-0.4-0.3
	c-0.2,0-0.5-0.1-0.7-0.1h-1.2v2.2h0.6c0.2,0,0.3,0,0.5-0.1c0.1,0,0.2-0.1,0.2-0.2c0.1-0.2,0.1-0.3,0.1-0.5h0.4v2.1h-0.4
	c0-0.2,0-0.3-0.1-0.5c0-0.1-0.1-0.2-0.2-0.2c-0.2,0-0.3-0.1-0.5-0.1h-0.7v1.5c0,0.2,0,0.4,0,0.5s0,0.2,0.1,0.3
	c0.1,0.1,0.2,0.1,0.3,0.2c0.2,0,0.3,0,0.5,0h0.5c0.2,0,0.4,0,0.6-0.1c0.2-0.1,0.4-0.2,0.6-0.4c0.2-0.3,0.4-0.7,0.4-1.1L137.2,367.5z
	"/>
<path class="st0" d="M152.2,369.6h-1.7c-0.1-0.1-0.2-0.2-0.2-0.3c-0.1-0.1-0.2-0.3-0.3-0.5l-0.3-0.4l-0.4-0.7
	c-0.1-0.2-0.3-0.4-0.4-0.7c-0.1-0.1-0.2-0.2-0.3-0.2c-0.2,0-0.4,0-0.6,0h-0.2v1.6c0,0.1,0,0.3,0.1,0.4c0,0.1,0.1,0.2,0.3,0.2
	c0.2,0.1,0.4,0.1,0.6,0.1v0.4h-3.2v-0.4c0.3,0,0.5,0,0.7-0.2c0.1-0.2,0.2-0.4,0.2-0.6v-4c0-0.2,0-0.4-0.2-0.6
	c-0.2-0.1-0.5-0.2-0.7-0.2v-0.4h1.5h1.3l0.9,0.1c0.2,0,0.4,0.1,0.6,0.1c0.2,0.1,0.5,0.2,0.7,0.3c0.2,0.1,0.4,0.3,0.5,0.5
	s0.2,0.5,0.2,0.8c0,0.2,0,0.4-0.1,0.6s-0.2,0.4-0.4,0.5c-0.2,0.2-0.5,0.3-0.8,0.4c0.2,0.1,0.4,0.3,0.6,0.5c0.1,0.2,0.4,0.6,0.7,1.1
	c0.1,0.2,0.3,0.5,0.5,0.7c0.1,0.1,0.2,0.2,0.4,0.3c0.1,0.1,0.3,0.1,0.4,0.1L152.2,369.6z M149.6,365c0-0.4-0.1-0.8-0.5-1
	s-0.8-0.3-1.2-0.2h-0.3v2.5h0.3c0.4,0,0.8-0.1,1.2-0.2C149.5,365.9,149.6,365.5,149.6,365z"/>
<path class="st0" d="M164.9,367.8c0,0.2,0,0.4-0.1,0.6s-0.2,0.4-0.4,0.6s-0.4,0.4-0.6,0.5c-0.3,0.1-0.6,0.2-0.9,0.2
	c-0.3,0-0.7-0.1-1-0.2s-0.6-0.4-0.8-0.7c-0.1,0.2-0.2,0.4-0.2,0.6h-0.4v-2.1h0.4c0.1,0.3,0.2,0.6,0.3,0.9s0.3,0.5,0.6,0.7
	s0.6,0.3,0.9,0.3c0.3,0,0.5-0.1,0.8-0.3c0.3-0.3,0.4-0.7,0.2-1.1c-0.1-0.1-0.2-0.2-0.3-0.3c-0.1-0.1-0.3-0.2-0.5-0.3l-0.7-0.3
	c-0.3-0.1-0.6-0.3-0.9-0.5c-0.2-0.1-0.4-0.3-0.6-0.5c-0.1-0.2-0.2-0.3-0.3-0.5c0-0.2-0.1-0.3-0.1-0.5c0-0.3,0.1-0.6,0.2-0.8
	c0.2-0.3,0.4-0.5,0.7-0.7s0.7-0.3,1-0.3s0.6,0.1,0.8,0.2c0.3,0.1,0.5,0.3,0.7,0.5c0.1-0.2,0.1-0.4,0.1-0.5h0.4v1.8H164
	c-0.3-1-0.8-1.4-1.6-1.4c-0.2,0-0.5,0.1-0.7,0.2s-0.3,0.3-0.3,0.6c0,0.2,0.1,0.3,0.2,0.5c0.1,0.1,0.3,0.3,0.4,0.3
	c0.2,0.1,0.4,0.2,0.8,0.4c0.4,0.2,0.7,0.4,1.1,0.6c0.3,0.2,0.5,0.4,0.7,0.6C164.8,367.1,164.9,367.4,164.9,367.8z"/>
<path class="st0" d="M176.3,369.6h-3.2v-0.4c0.2,0,0.4,0,0.6-0.1c0.1,0,0.2-0.1,0.3-0.2c0-0.1,0.1-0.3,0.1-0.4v-4
	c0-0.2,0-0.4-0.2-0.6c-0.2-0.1-0.5-0.2-0.8-0.2v-0.4h3.2v0.4c-0.2,0-0.4,0-0.6,0.1c-0.1,0-0.2,0.1-0.3,0.2c0,0.1-0.1,0.3-0.1,0.4v4
	c0,0.1,0,0.3,0.1,0.4c0,0.1,0.1,0.2,0.3,0.2c0.2,0.1,0.4,0.1,0.6,0.1L176.3,369.6z"/>
<path class="st0" d="M190.6,365.1h-0.4c0-0.3-0.1-0.6-0.3-0.9c-0.1-0.2-0.2-0.3-0.4-0.3s-0.3-0.1-0.5-0.1h-0.8v4.6
	c0,0.1,0,0.3,0.1,0.4c0,0.1,0.1,0.2,0.3,0.2c0.2,0.1,0.4,0.1,0.6,0.1v0.4H186v-0.4c0.3,0,0.5,0,0.7-0.2c0.1-0.2,0.2-0.4,0.2-0.6
	v-4.6h-0.7c-0.2,0-0.4,0-0.7,0.1c-0.2,0.1-0.4,0.2-0.5,0.3c-0.2,0.3-0.2,0.6-0.2,0.9h-0.4v-1.8h6.2L190.6,365.1z"/>
<path class="st0" d="M205.1,363.7c-0.1,0-0.3,0-0.4,0.1c-0.1,0.1-0.2,0.2-0.3,0.3c-0.1,0.1-0.3,0.4-0.5,0.7l-1.3,2.1v1.5
	c0,0.1,0,0.3,0.1,0.4c0,0.1,0.1,0.2,0.2,0.2c0.2,0.1,0.4,0.1,0.6,0.1v0.4h-3.2v-0.4c0.2,0,0.4,0,0.6-0.1c0.1,0,0.2-0.1,0.3-0.2
	c0-0.1,0.1-0.3,0.1-0.4V367l-1.6-2.6v-0.1l0,0c-0.1-0.2-0.2-0.3-0.4-0.4c-0.1-0.1-0.3-0.1-0.5-0.1v-0.4h2.9v0.4h-0.4
	c-0.1,0-0.2,0-0.2,0.1c-0.1,0-0.1,0.1-0.1,0.2s0,0.1,0.1,0.2c0.1,0.2,0.2,0.3,0.3,0.5l1,1.7l0.9-1.5c0.2-0.2,0.3-0.4,0.3-0.7
	c0-0.2-0.1-0.3-0.2-0.4c-0.2-0.1-0.3-0.1-0.5-0.1v-0.4h2.3L205.1,363.7z"/>
<path class="st0" d="M183.7,354.6h-0.6l-0.1,0.1c-0.2,0.4-0.6,0.7-1.1,0.7c-0.3,0-0.7-0.1-1-0.3c-0.5-0.4-0.9-0.9-1.3-1.5
	c0.3-0.5,0.6-1,0.8-1.5c0.2-0.6,0.6-1.2,1-1.7c0.3-0.3,0.7-0.5,1.1-0.6h0.1h0.1v-0.9h-4.3v0.9h0.2h0.1c1,0.1,1.1,0.5,1.1,0.9
	s-0.1,0.7-0.3,1.1c-0.1,0.4-0.3,0.7-0.5,1l-2.5-3.4c1.6-0.8,2.4-1.8,2.4-2.7c0-0.7-0.3-1.3-0.9-1.6c-0.5-0.4-1.2-0.6-1.9-0.6
	s-1.4,0.3-2,0.8c-0.5,0.5-0.8,1.1-0.8,1.8c0.1,0.9,0.4,1.8,0.9,2.5c-0.8,0.5-1.5,1.1-2.1,1.8c-0.4,0.6-0.7,1.3-0.7,2
	s0.2,1.3,0.5,1.8c0.7,1,1.8,1.7,3.1,1.7c1.2-0.1,2.4-0.6,3.2-1.6c0.7,1,1.8,1.5,3,1.6c0.6,0,1.1-0.2,1.5-0.5s0.8-0.8,0.9-1.3V355
	l0.1-0.2V354.6z M176,348.4c-0.4-0.5-0.7-1.2-0.8-1.9c0-0.3,0.1-0.6,0.3-0.8c0.4-0.4,1.2-0.4,1.6,0l0,0c0.2,0.3,0.3,0.6,0.3,0.9
	C177.4,347.2,176.9,347.9,176,348.4z M175,350.3c0.8,1.1,1.7,2.4,2.8,4.1c-0.5,0.6-1.1,0.9-1.9,0.9c-0.7,0-1.3-0.3-1.7-0.9
	c-0.5-0.5-0.8-1.1-0.8-1.8c0-0.5,0.2-0.9,0.4-1.3C174.2,350.9,174.6,350.6,175,350.3z"/>
</svg>
