<?xml version="1.0" encoding="utf-8"?>
<!-- Generator: Adobe Illustrator 26.5.0, SVG Export Plug-In . SVG Version: 6.00 Build 0)  -->
<svg version="1.1" id="Layer_1" xmlns="http://www.w3.org/2000/svg" xmlns:xlink="http://www.w3.org/1999/xlink" x="0px" y="0px"
	 viewBox="0 0 221 385" style="enable-background:new 0 0 221 385;" xml:space="preserve">
<style type="text/css">
	.st0{fill:#FFFFFF;}
	.st1{fill:#0066A6;}
	.st2{fill:#808080;}
	.st3{fill:#B1B3B6;}
</style>
<rect class="st0" width="221" height="385"/>
<g>
	<g id="big_finals_00000164512554038996071230000010644472662152380303_">
		<path class="st1" d="M92,58.1c-7.6,0.2-15.1,1.4-22.5,3.5l22.5,13V58.1z"/>
		<path class="st1" d="M92,75.4L68.4,61.8C60,64.3,51.9,68,44.6,72.9l47.4,82V75.4z"/>
		<path class="st1" d="M20.2,157.5H3.6c1.4,14.9,6.4,29.3,14.7,41.8l37.2-21.5L20.2,157.5z"/>
		<path class="st1" d="M3,147.9c0,0.5,0,0.9,0,1.4c0,2.6,0.1,5.1,0.4,7.6h15.2L3,147.9z"/>
		<path class="st1" d="M90.8,156.9l-79.2-45.8c-5.2,11.2-8,23.4-8.3,35.8l17.1,9.9h70.4V156.9z"/>
		<path class="st1" d="M43.8,73.3C30,82.5,19,95.3,11.9,110.2l79.9,46.2L43.8,73.3z"/>
		<path class="st1" d="M92.6,287.5v31.2h34.2h1.6v-10.5L92.6,287.5z"/>
		<polygon class="st1" points="90.4,286.1 71.4,318.7 92,318.7 92,287 		"/>
		<polygon class="st1" points="52.1,264.3 4.9,291.5 4.9,318.7 70,318.7 89.3,285.7 		"/>
		<path class="st1" d="M36.3,219.1v0.1h20.1l17.5-30.8l-17.7-10.2l-37.4,21.7C23.6,207.1,29.5,213.6,36.3,219.1z"/>
		<polygon class="st1" points="36.4,255.1 36.4,255.1 35.9,254.8 55.4,220.5 4.9,220.5 4.9,290.7 51.5,263.8 		"/>
		<path class="st1" d="M200.9,219.2h16.6c-1.4-14.9-6.4-29.3-14.7-41.8l-37.1,21.4L200.9,219.2z"/>
		<path class="st1" d="M130.3,220.5l79.2,45.7c5.2-11.2,8-23.4,8.3-35.8l-17.1-9.9H130.3z"/>
		<path class="st1" d="M218,229.5c0-0.5,0-0.9,0-1.4c0-2.6-0.1-5.1-0.4-7.6h-15.2L218,229.5z"/>
		<path class="st1" d="M129,318.8c4.9-0.1,9.8-0.7,14.7-1.6l-14.7-8.5V318.8z"/>
		<path class="st1" d="M177.6,303.4c13.7-9.2,24.6-21.9,31.6-36.8l-79.3-45.8L177.6,303.4z"/>
		<path class="st1" d="M129,307.8l16,9.2c11.3-2.3,22.1-6.8,31.8-13.2L129,221.3V307.8z"/>
		<path class="st1" d="M185.5,158.1h-20.7l-17.5,30.3l17.5,10.1l37.5-21.6C197.6,169.8,192,163.5,185.5,158.1z"/>
		<polygon class="st1" points="148.2,58 129,58 129,91.6 		"/>
		<path class="st1" d="M127.3,95l1.1-2V58H94.2h-1.6v16.9L127.3,95z"/>
		<polygon class="st1" points="182.8,127.1 182.6,127.4 182.9,127.6 165.9,156.9 216.1,156.9 216.1,86.3 164.1,116.3 		"/>
		<polygon class="st1" points="129.7,96.1 163.5,115.7 216.1,85.2 216.1,58 149.7,58 129.7,93.2 		"/>
		<polygon class="st1" points="128.4,95.6 128.4,94.6 128,95.4 		"/>
		<polygon class="st1" points="57.4,219.2 92,219.2 92,198.7 74.7,188.8 		"/>
		<polygon class="st1" points="92.6,220.5 92.6,240 126.3,220.5 		"/>
		<polygon class="st1" points="92.6,159.2 92.6,198.4 127.2,218.4 		"/>
		<polygon class="st1" points="92.6,241.1 92.6,280.5 127.2,221.2 		"/>
		<polygon class="st1" points="92,198 92,158.8 75.1,188.3 		"/>
		<polygon class="st1" points="92.6,75.8 92.6,155.7 126.9,95.7 		"/>
		<polygon class="st1" points="92.6,199.2 92.6,219.2 127.3,219.2 		"/>
		<polygon class="st1" points="93.4,155.9 128.4,135.7 128.4,96.6 127.6,96.1 		"/>
		<polygon class="st1" points="92.6,281.9 92.6,286.4 128.4,307.1 128.4,220.5 128.4,220.5 		"/>
		<polygon class="st1" points="199.4,219.2 164.8,199.3 130.3,219.2 		"/>
		<polygon class="st1" points="128.4,177.5 128.4,158.1 94.8,158.1 		"/>
		<polygon class="st1" points="103.4,175.1 128.4,217.8 128.4,178.5 93.9,158.5 		"/>
		<polygon class="st1" points="128.4,156.9 128.4,136.8 93.7,156.9 		"/>
		<polygon class="st1" points="129,178.9 129,217.7 145.9,188.7 		"/>
		<polygon class="st1" points="37.2,254.4 52.5,263.2 92,240.4 92,220.5 56.6,220.5 		"/>
		<polygon class="st1" points="163.7,158.1 129,158.1 129,177.9 146.3,187.9 		"/>
		<polygon class="st1" points="129.4,219 164.1,199 146.9,189.1 		"/>
		<polygon class="st1" points="129,97 129,135.3 162.1,116.2 		"/>
		<polygon class="st1" points="181.6,127.6 162.9,116.8 129,136.4 129,156.9 164.6,156.9 		"/>
		<polygon class="st1" points="90.1,285.1 92,281.9 92,241.6 53.3,263.9 		"/>
		<polygon class="st1" points="92,286.2 92,283.5 90.8,285.5 		"/>
		<polygon class="st1" points="21.8,157.5 56.3,177.4 90.8,157.5 		"/>
		<polygon class="st1" points="91.3,158.1 57.1,177.9 74.3,187.9 		"/>
	</g>
</g>
<g>
	<rect x="5.1" y="327.8" class="st2" width="212.5" height="51.4"/>
	<rect x="61.4" y="339" class="st0" width="0.7" height="28.9"/>
	<polygon class="st0" points="49,348.7 45.8,348.7 45.6,348.7 45.5,348.9 43.2,353.7 40.9,348.9 40.8,348.7 40.7,348.7 37.6,348.7 
		37.3,348.7 37.3,349 37.3,350.7 37.3,351 37.6,351 38.1,351 38.1,357.8 37.6,357.8 37.3,357.8 37.3,358.1 37.3,359.7 37.3,360 
		37.6,360 41,360 41.3,360 41.3,359.7 41.3,358.1 41.3,357.8 41,357.8 40.4,357.8 40.4,352.9 43,358.3 43.2,358.8 43.5,358.3 
		46.1,352.9 46.1,357.8 45.5,357.8 45.2,357.8 45.2,358.1 45.2,359.7 45.2,360 45.5,360 49,360 49.3,360 49.3,359.7 49.3,358.1 
		49.3,357.8 49,357.8 48.4,357.8 48.4,351 49,351 49.3,351 49.3,350.7 49.3,349 49.3,348.7 	"/>
	<path class="st0" d="M29,357.8h-1l-2.9-6.9h0.6v-2.2h-4.9v2.2h0.7l-3,6.9h-1.2v2.2h4.3v-2.2H21l0.5-1.2h3.6l0.5,1.1h-0.7v2.2h4.3
		v-2.2H29V357.8z M24.1,354.4h-1.7l0.8-1.9L24.1,354.4z"/>
	<polygon class="st0" points="45.3,340.1 21.2,340.1 20.8,340.1 20.8,340.5 20.8,346.9 20.8,347.2 21.2,347.2 25.3,347.2 
		25.7,347.2 25.7,346.9 25.7,344.5 30.8,344.5 30.8,361.5 28.4,361.5 28.1,361.5 28.1,361.9 28.1,366 28.1,366.4 28.4,366.4 
		38.1,366.4 38.4,366.4 38.4,366 38.4,361.9 38.4,361.5 38.1,361.5 35.7,361.5 35.7,344.5 40.8,344.5 40.8,346.9 40.8,347.2 
		41.1,347.2 45.3,347.2 45.7,347.2 45.7,346.9 45.7,340.5 45.7,340.1 	"/>
	<polygon class="st3" points="36.4,363.5 37.4,362.5 37.4,365.3 36.4,364.4 	"/>
	<polygon class="st3" points="34.7,362.5 33.7,363.5 33.7,342.5 34.7,343.5 	"/>
	<polygon class="st3" points="22.9,342.1 21.8,341.1 44.2,341.1 42.8,342.1 	"/>
	<polygon class="st3" points="44.7,346.3 43.7,345.3 43.7,342.7 44.7,341.7 	"/>
	<path class="st0" d="M88.9,344.5h-1.1c0-0.8-0.2-1.5-0.6-2.1c-0.2-0.4-0.6-0.7-1.1-0.8c-0.4-0.1-0.8-0.1-1.2-0.1h-2v11.2
		c0,0.4,0,0.7,0.1,1.1c0.1,0.3,0.4,0.5,0.6,0.6c0.5,0.2,1,0.2,1.5,0.2v1.1h-7.7v-1.1c0.6,0.1,1.3-0.1,1.8-0.4
		c0.3-0.4,0.5-0.9,0.4-1.4v-11.2H78c-0.5,0-1.1,0-1.6,0.1c-0.4,0.1-0.8,0.4-1.1,0.8c-0.4,0.6-0.6,1.4-0.5,2.1h-1.1v-4.4H89
		L88.9,344.5z"/>
	<path class="st0" d="M103.8,350.4l-0.1,5H90.1v-1.1c0.6,0.1,1.3-0.1,1.8-0.4c0.3-0.4,0.5-0.9,0.4-1.4v-9.6c0-0.4,0-0.7-0.1-1.1
		c-0.1-0.3-0.3-0.5-0.6-0.6c-0.5-0.2-1-0.2-1.5-0.2v-1h12.7l0.2,4h-1.1c-0.1-0.7-0.4-1.3-0.8-1.9c-0.3-0.4-0.6-0.6-1.1-0.7
		c-0.6-0.1-1.1-0.1-1.7-0.1h-2.8v5.4H97c0.4,0,0.8,0,1.2-0.1c0.3-0.1,0.5-0.3,0.6-0.5c0.1-0.4,0.2-0.8,0.2-1.2h1.1v5.1H99
		c0-0.4-0.1-0.8-0.2-1.2c-0.1-0.3-0.3-0.4-0.6-0.5c-0.4-0.1-0.8-0.2-1.2-0.1h-1.5v3.7c0,0.6,0,1.1,0,1.3c0,0.2,0.1,0.5,0.2,0.7
		c0.2,0.2,0.4,0.3,0.6,0.4c0.4,0.1,0.8,0.1,1.3,0.1h1.2c0.5,0,1-0.1,1.5-0.2c0.6-0.2,1-0.5,1.4-1c0.5-0.8,0.9-1.6,1-2.6h1.1V350.4z"
		/>
	<path class="st0" d="M135.7,354.1c-0.3-0.2-0.5-0.4-0.7-0.7c-0.2-0.3-0.4-0.9-0.7-1.7l-4.7-11.9h-1.1l-4.4,11.5
		c-0.2,0.6-0.5,1.3-0.9,1.9c-0.2,0.4-0.5,0.7-0.8,0.9c-0.2,0.1-0.3,0.1-0.5,0.2c-0.3,0-0.5-0.1-0.8-0.2c-0.4-0.2-0.8-0.5-1.1-0.8
		c-0.5-0.5-0.9-1.1-1.4-1.7l-3.7-4.9l2.7-3.1c0.6-0.7,1.1-1.2,1.4-1.5s0.7-0.5,1.1-0.7c0.5-0.2,1-0.3,1.5-0.3V340h-6.3v1.1h0.5
		c0.4,0,0.7,0,1.1,0.2c0.2,0.1,0.3,0.3,0.3,0.5s0,0.3-0.1,0.4s-0.2,0.3-0.4,0.6l-2.4,2.8l-2.1-2.7c-0.3-0.4-0.5-0.8-0.7-1.2
		c0-0.2,0.1-0.4,0.3-0.5c0.3-0.1,0.6-0.1,1-0.1h0.6V340h-8.3v1.1c0.5,0,0.9,0,1.4,0.2c0.3,0.1,0.6,0.3,0.9,0.6
		c0.2,0.3,0.7,0.7,1.2,1.5l3.7,4.9l-2.7,3.2c-0.6,0.7-1.2,1.3-1.9,2c-0.4,0.3-0.8,0.6-1.3,0.8c-0.4,0.1-0.9,0.2-1.3,0.2v1.1h6.7
		v-1.1c-0.4,0-0.7,0-1.1,0c-0.2,0-0.5-0.1-0.7-0.3c-0.2-0.1-0.3-0.4-0.3-0.6c0.1-0.6,0.4-1.1,0.8-1.5l2.4-2.8l2.5,3.2
		c0.3,0.3,0.5,0.7,0.6,1.1c0,0.3-0.2,0.6-0.5,0.7s-0.7,0.2-1.1,0.1h-0.7v1.1h12.9v-1.1c-0.4,0-0.8-0.1-1.2-0.2
		c-0.4-0.1-0.6-0.5-0.5-0.9c0-0.4,0.2-0.8,0.3-1.2l0.4-1h4.9l0.7,1.8c0.1,0.2,0.1,0.4,0.1,0.7c0,0.3-0.1,0.5-0.4,0.6
		c-0.4,0.1-0.9,0.1-1.3,0.1v1.1h7.2v-1.1C136.5,354.4,136.1,354.3,135.7,354.1z M126.1,350l2-5.3l2.1,5.3H126.1z"/>
	<path class="st0" d="M148.4,350.9c0,0.5-0.1,1-0.3,1.5s-0.5,1-0.9,1.5s-0.9,0.9-1.5,1.2c-0.7,0.3-1.4,0.5-2.1,0.4
		c-0.8,0-1.6-0.2-2.4-0.5c-0.8-0.3-1.5-0.9-2-1.5c-0.2,0.5-0.4,1-0.4,1.5h-1v-5.1h1c0.2,0.7,0.4,1.4,0.8,2.1
		c0.3,0.6,0.8,1.2,1.4,1.6c0.6,0.5,1.4,0.7,2.1,0.7c0.7,0,1.3-0.2,1.8-0.6c0.7-0.6,0.9-1.6,0.5-2.5c-0.2-0.3-0.4-0.5-0.6-0.7
		c-0.3-0.3-0.7-0.5-1.1-0.7c-0.5-0.2-1-0.5-1.6-0.8c-0.8-0.4-1.5-0.8-2.2-1.3c-0.5-0.4-0.9-0.8-1.3-1.3c-0.3-0.4-0.5-0.7-0.6-1.2
		c-0.1-0.3-0.2-0.7-0.2-1.1c0-0.7,0.2-1.4,0.5-2c0.4-0.7,0.9-1.2,1.6-1.6c0.7-0.4,1.6-0.6,2.4-0.6c0.7,0,1.4,0.2,2,0.5
		s1.2,0.7,1.7,1.3c0.2-0.4,0.3-0.9,0.4-1.3h1.1v4.2h-1.1c-0.7-2.3-2-3.4-3.8-3.4c-0.6,0-1.1,0.2-1.6,0.5c-0.4,0.3-0.6,0.8-0.6,1.3
		c0,0.4,0.1,0.8,0.4,1.1c0.3,0.3,0.6,0.6,1,0.8c0.4,0.2,1.1,0.6,2,1s1.7,0.9,2.6,1.4c0.6,0.4,1.1,0.9,1.6,1.5
		C148.2,349.4,148.5,350.1,148.4,350.9z"/>
	<path class="st0" d="M171.8,355.4h-7.2v-1.1c0.4,0,0.9,0,1.3-0.1c0.3-0.1,0.4-0.3,0.4-0.6c0-0.2-0.1-0.5-0.1-0.7l-0.7-1.8h-4.9
		l-0.4,1c-0.2,0.4-0.3,0.8-0.3,1.2c0,0.4,0.2,0.7,0.5,0.9c0.4,0.1,0.8,0.2,1.2,0.2v1.1h-5.3v-1.1c0.4,0,0.7-0.1,1.1-0.2
		c0.4-0.2,0.6-0.5,0.8-0.9c0.3-0.6,0.6-1.2,0.9-1.9l4.4-11.5h1.1l4.6,11.9c0.3,0.8,0.6,1.4,0.7,1.7c0.1,0.3,0.4,0.5,0.7,0.7
		c0.4,0.2,0.8,0.3,1.2,0.2V355.4z M165,350.1l-2.1-5.3l-2,5.3H165z"/>
	<path class="st0" d="M205.1,355.4h-7.7v-1.1c0.5,0,1,0,1.5-0.2c0.3-0.1,0.5-0.3,0.6-0.6c0.1-0.3,0.2-0.7,0.1-1.1v-9.6l-5.8,12.4
		h-0.7l-5.8-12.4v9.1c0,0.4,0,0.7,0,1.1c0,0.2,0.1,0.5,0.3,0.7s0.4,0.3,0.7,0.4c0.4,0.1,0.8,0.1,1.3,0.1v1.1H184v-1.1
		c0.4,0,0.8,0,1.3-0.1c0.3-0.1,0.5-0.2,0.7-0.4c0.1-0.2,0.2-0.4,0.2-0.7c0-0.4,0-0.7,0-1.1v-8.5c0-0.5,0-0.9-0.1-1.4
		c-0.1-0.3-0.3-0.5-0.6-0.7c-0.5-0.2-1-0.3-1.5-0.2V340h5.6l5.1,10.8l5.1-10.8h5.5v1.1c-0.6-0.1-1.3,0.1-1.8,0.4
		c-0.3,0.4-0.5,0.9-0.4,1.4v9.6c0,0.3,0,0.7,0.1,1s0.3,0.5,0.6,0.6c0.5,0.2,1,0.2,1.5,0.2L205.1,355.4z"/>
	<path class="st0" d="M82.7,360.7c-0.2,0-0.4,0-0.6,0.1c-0.1,0.1-0.2,0.2-0.2,0.3c0,0.2,0,0.4,0,0.6v2.3c0,0.3,0,0.6,0,1
		c0,0.2-0.1,0.5-0.2,0.7c-0.2,0.4-0.6,0.7-1,0.9c-0.4,0.2-0.8,0.2-1.2,0.2c-0.3,0-0.6,0-0.9-0.1s-0.6-0.2-0.8-0.4
		c-0.3-0.2-0.5-0.4-0.6-0.7c-0.1-0.2-0.1-0.3-0.2-0.5c0-0.1-0.1-0.3-0.1-0.4s0-0.3,0-0.5v-2.6c0-0.2,0-0.4-0.2-0.6
		c-0.2-0.1-0.5-0.2-0.7-0.2v-0.4h3.2v0.4c-0.2,0-0.4,0-0.6,0.1c-0.1,0-0.2,0.1-0.3,0.2c0,0.1-0.1,0.3-0.1,0.4v2.6c0,0.2,0,0.5,0,0.7
		s0.1,0.4,0.1,0.5c0.1,0.3,0.3,0.5,0.5,0.6c0.3,0.1,0.5,0.2,0.8,0.2s0.6-0.1,0.9-0.2s0.5-0.4,0.6-0.6s0.1-0.4,0.2-0.6
		c0-0.3,0-0.5,0-0.8v-2.3c0-0.1,0-0.3,0-0.4s0-0.2-0.1-0.3c-0.1-0.1-0.2-0.1-0.3-0.2c-0.2,0-0.4,0-0.5,0v-0.4h2.3L82.7,360.7z"/>
	<path class="st0" d="M97.6,360.7c-0.2,0-0.4,0-0.6,0.1c-0.1,0-0.2,0.1-0.2,0.3c0,0.2,0,0.4,0,0.6v5h-0.4l-4.1-4.9v3.5
		c0,0.2,0,0.4,0,0.6c0,0.1,0.1,0.2,0.2,0.3c0.2,0.1,0.4,0.1,0.7,0.1v0.4h-2.3v-0.4c0.2,0,0.4,0,0.6-0.1c0.1-0.1,0.2-0.2,0.2-0.3
		c0-0.2,0-0.4,0-0.6V362c0-0.3,0-0.5,0-0.6s0-0.2-0.1-0.3c-0.1-0.1-0.1-0.2-0.3-0.2c-0.2-0.1-0.3-0.1-0.5-0.1v-0.4h1.8l3.6,4.3v-2.9
		c0-0.2,0-0.4,0-0.5s-0.1-0.2-0.2-0.3c-0.2-0.1-0.4-0.1-0.6-0.1v-0.4h2.4L97.6,360.7z"/>
	<path class="st0" d="M108.7,366.6h-3.2v-0.4c0.2,0,0.4,0,0.6-0.1c0.1,0,0.2-0.1,0.3-0.2c0-0.1,0.1-0.3,0.1-0.4v-4
		c0-0.2,0-0.4-0.2-0.6c-0.2-0.1-0.5-0.2-0.8-0.2v-0.4h3.2v0.4c-0.2,0-0.4,0-0.6,0.1c-0.1,0-0.2,0.1-0.3,0.2c0,0.1-0.1,0.3-0.1,0.4v4
		c0,0.1,0,0.3,0.1,0.4c0,0.1,0.1,0.2,0.3,0.2c0.2,0.1,0.4,0.1,0.6,0.1V366.6z"/>
	<path class="st0" d="M123.6,360.7c-0.1,0-0.3,0-0.4,0.1c-0.1,0-0.2,0.1-0.3,0.2c-0.1,0.1-0.2,0.2-0.2,0.3c-0.1,0.1-0.2,0.4-0.3,0.6
		l-2.1,4.8H120l-2.1-5c-0.1-0.2-0.2-0.4-0.3-0.7c-0.1-0.1-0.2-0.2-0.3-0.2c-0.2-0.1-0.4-0.1-0.6-0.1v-0.4h3.2v0.4
		c-0.2,0-0.4,0-0.6,0.1c-0.1,0-0.2,0.2-0.2,0.3c0,0.2,0,0.3,0.1,0.4l1.4,3.4l1.3-3.1c0.1-0.2,0.1-0.4,0.2-0.6c0-0.2-0.1-0.3-0.2-0.4
		c-0.2-0.1-0.4-0.1-0.6-0.1v-0.4h2.3L123.6,360.7z"/>
	<path class="st0" d="M137.2,364.5l-0.1,2.1h-5.6v-0.4c0.3,0,0.5,0,0.7-0.2c0.1-0.2,0.2-0.4,0.2-0.6v-4c0-0.1,0-0.3,0-0.4
		s-0.1-0.2-0.3-0.2c-0.2-0.1-0.4-0.1-0.6-0.1v-0.4h5.2l0.1,1.6h-0.4c-0.1-0.3-0.2-0.5-0.3-0.8c-0.1-0.1-0.3-0.2-0.4-0.3
		c-0.2,0-0.5-0.1-0.7-0.1h-1.2v2.2h0.6c0.2,0,0.3,0,0.5-0.1c0.1,0,0.2-0.1,0.2-0.2c0.1-0.2,0.1-0.3,0.1-0.5h0.4v2.1h-0.4
		c0-0.2,0-0.3-0.1-0.5c0-0.1-0.1-0.2-0.2-0.2c-0.2,0-0.3-0.1-0.5-0.1h-0.7v1.5c0,0.2,0,0.4,0,0.5s0,0.2,0.1,0.3
		c0.1,0.1,0.2,0.1,0.3,0.2c0.2,0,0.3,0,0.5,0h0.5c0.2,0,0.4,0,0.6-0.1c0.2-0.1,0.4-0.2,0.6-0.4c0.2-0.3,0.4-0.7,0.4-1.1L137.2,364.5
		z"/>
	<path class="st0" d="M152.2,366.6h-1.7c-0.1-0.1-0.2-0.2-0.2-0.3c-0.1-0.1-0.2-0.3-0.3-0.5l-0.3-0.4l-0.4-0.7
		c-0.1-0.2-0.3-0.4-0.4-0.7c-0.1-0.1-0.2-0.2-0.3-0.2c-0.2,0-0.4,0-0.6,0h-0.2v1.6c0,0.1,0,0.3,0.1,0.4c0,0.1,0.1,0.2,0.3,0.2
		c0.2,0.1,0.4,0.1,0.6,0.1v0.4h-3.2v-0.4c0.3,0,0.5,0,0.7-0.2c0.1-0.2,0.2-0.4,0.2-0.6v-4c0-0.2,0-0.4-0.2-0.6
		c-0.2-0.1-0.5-0.2-0.7-0.2v-0.4h1.5h1.3l0.9,0.1c0.2,0,0.4,0.1,0.6,0.1c0.2,0.1,0.5,0.2,0.7,0.3c0.2,0.1,0.4,0.3,0.5,0.5
		s0.2,0.5,0.2,0.8c0,0.2,0,0.4-0.1,0.6s-0.2,0.4-0.4,0.5c-0.2,0.2-0.5,0.3-0.8,0.4c0.2,0.1,0.4,0.3,0.6,0.5c0.1,0.2,0.4,0.6,0.7,1.1
		c0.1,0.2,0.3,0.5,0.5,0.7c0.1,0.1,0.2,0.2,0.4,0.3c0.1,0.1,0.3,0.1,0.4,0.1L152.2,366.6z M149.6,362c0-0.4-0.1-0.8-0.5-1
		s-0.8-0.3-1.2-0.2h-0.3v2.5h0.3c0.4,0,0.8-0.1,1.2-0.2C149.5,362.9,149.6,362.5,149.6,362z"/>
	<path class="st0" d="M164.9,364.8c0,0.2,0,0.4-0.1,0.6s-0.2,0.4-0.4,0.6s-0.4,0.4-0.6,0.5c-0.3,0.1-0.6,0.2-0.9,0.2
		c-0.3,0-0.7-0.1-1-0.2s-0.6-0.4-0.8-0.7c-0.1,0.2-0.2,0.4-0.2,0.6h-0.4v-2.1h0.4c0.1,0.3,0.2,0.6,0.3,0.9s0.3,0.5,0.6,0.7
		s0.6,0.3,0.9,0.3c0.3,0,0.5-0.1,0.8-0.3c0.3-0.3,0.4-0.7,0.2-1.1c-0.1-0.1-0.2-0.2-0.3-0.3c-0.1-0.1-0.3-0.2-0.5-0.3l-0.7-0.3
		c-0.3-0.1-0.6-0.3-0.9-0.5c-0.2-0.1-0.4-0.3-0.6-0.5c-0.1-0.2-0.2-0.3-0.3-0.5c0-0.2-0.1-0.3-0.1-0.5c0-0.3,0.1-0.6,0.2-0.8
		c0.2-0.3,0.4-0.5,0.7-0.7s0.7-0.3,1-0.3s0.6,0.1,0.8,0.2c0.3,0.1,0.5,0.3,0.7,0.5c0.1-0.2,0.1-0.4,0.1-0.5h0.4v1.8H164
		c-0.3-1-0.8-1.4-1.6-1.4c-0.2,0-0.5,0.1-0.7,0.2s-0.3,0.3-0.3,0.6c0,0.2,0.1,0.3,0.2,0.5c0.1,0.1,0.3,0.3,0.4,0.3
		c0.2,0.1,0.4,0.2,0.8,0.4c0.4,0.2,0.7,0.4,1.1,0.6c0.3,0.2,0.5,0.4,0.7,0.6C164.8,364.1,164.9,364.4,164.9,364.8z"/>
	<path class="st0" d="M176.3,366.6h-3.2v-0.4c0.2,0,0.4,0,0.6-0.1c0.1,0,0.2-0.1,0.3-0.2c0-0.1,0.1-0.3,0.1-0.4v-4
		c0-0.2,0-0.4-0.2-0.6c-0.2-0.1-0.5-0.2-0.8-0.2v-0.4h3.2v0.4c-0.2,0-0.4,0-0.6,0.1c-0.1,0-0.2,0.1-0.3,0.2c0,0.1-0.1,0.3-0.1,0.4v4
		c0,0.1,0,0.3,0.1,0.4c0,0.1,0.1,0.2,0.3,0.2c0.2,0.1,0.4,0.1,0.6,0.1L176.3,366.6z"/>
	<path class="st0" d="M190.6,362.1h-0.4c0-0.3-0.1-0.6-0.3-0.9c-0.1-0.2-0.2-0.3-0.4-0.3s-0.3-0.1-0.5-0.1h-0.8v4.6
		c0,0.1,0,0.3,0.1,0.4c0,0.1,0.1,0.2,0.3,0.2c0.2,0.1,0.4,0.1,0.6,0.1v0.4H186v-0.4c0.3,0,0.5,0,0.7-0.2c0.1-0.2,0.2-0.4,0.2-0.6
		v-4.6h-0.7c-0.2,0-0.4,0-0.7,0.1c-0.2,0.1-0.4,0.2-0.5,0.3c-0.2,0.3-0.2,0.6-0.2,0.9h-0.4v-1.8h6.2V362.1z"/>
	<path class="st0" d="M205.1,360.7c-0.1,0-0.3,0-0.4,0.1c-0.1,0.1-0.2,0.2-0.3,0.3c-0.1,0.1-0.3,0.4-0.5,0.7l-1.3,2.1v1.5
		c0,0.1,0,0.3,0.1,0.4c0,0.1,0.1,0.2,0.2,0.2c0.2,0.1,0.4,0.1,0.6,0.1v0.4h-3.2v-0.4c0.2,0,0.4,0,0.6-0.1c0.1,0,0.2-0.1,0.3-0.2
		c0-0.1,0.1-0.3,0.1-0.4V364l-1.6-2.6v-0.1l0,0c-0.1-0.2-0.2-0.3-0.4-0.4c-0.1-0.1-0.3-0.1-0.5-0.1v-0.4h2.9v0.4h-0.4
		c-0.1,0-0.2,0-0.2,0.1c-0.1,0-0.1,0.1-0.1,0.2s0,0.1,0.1,0.2c0.1,0.2,0.2,0.3,0.3,0.5l1,1.7l0.9-1.5c0.2-0.2,0.3-0.4,0.3-0.7
		c0-0.2-0.1-0.3-0.2-0.4c-0.2-0.1-0.3-0.1-0.5-0.1v-0.4h2.3L205.1,360.7z"/>
	<path class="st0" d="M183.7,351.6h-0.6l-0.1,0.1c-0.2,0.4-0.6,0.7-1.1,0.7c-0.3,0-0.7-0.1-1-0.3c-0.5-0.4-0.9-0.9-1.3-1.5
		c0.3-0.5,0.6-1,0.8-1.5c0.2-0.6,0.6-1.2,1-1.7c0.3-0.3,0.7-0.5,1.1-0.6h0.1h0.1v-0.9h-4.3v0.9h0.2h0.1c1,0.1,1.1,0.5,1.1,0.9
		s-0.1,0.7-0.3,1.1c-0.1,0.4-0.3,0.7-0.5,1l-2.5-3.4c1.6-0.8,2.4-1.8,2.4-2.7c0-0.7-0.3-1.3-0.9-1.6c-0.5-0.4-1.2-0.6-1.9-0.6
		s-1.4,0.3-2,0.8c-0.5,0.5-0.8,1.1-0.8,1.8c0.1,0.9,0.4,1.8,0.9,2.5c-0.8,0.5-1.5,1.1-2.1,1.8c-0.4,0.6-0.7,1.3-0.7,2
		s0.2,1.3,0.5,1.8c0.7,1,1.8,1.7,3.1,1.7c1.2-0.1,2.4-0.6,3.2-1.6c0.7,1,1.8,1.5,3,1.6c0.6,0,1.1-0.2,1.5-0.5s0.8-0.8,0.9-1.3V352
		l0.1-0.2V351.6z M176,345.4c-0.4-0.5-0.7-1.2-0.8-1.9c0-0.3,0.1-0.6,0.3-0.8c0.4-0.4,1.2-0.4,1.6,0l0,0c0.2,0.3,0.3,0.6,0.3,0.9
		C177.4,344.2,176.9,344.9,176,345.4z M175,347.3c0.8,1.1,1.7,2.4,2.8,4.1c-0.5,0.6-1.1,0.9-1.9,0.9c-0.7,0-1.3-0.3-1.7-0.9
		c-0.5-0.5-0.8-1.1-0.8-1.8c0-0.5,0.2-0.9,0.4-1.3C174.2,347.9,174.6,347.6,175,347.3z"/>
</g>
</svg>
